<?xml version="1.0" encoding="utf-8"?>
<!-- Generator: Adobe Illustrator 23.0.4, SVG Export Plug-In . SVG Version: 6.00 Build 0)  -->
<svg version="1.1" id="Capa_1" xmlns="http://www.w3.org/2000/svg" xmlns:xlink="http://www.w3.org/1999/xlink" x="0px" y="0px"
	 viewBox="0 0 512 512" style="enable-background:new 0 0 512 512;" xml:space="preserve">
<style type="text/css">
	.st0{opacity:0.4;}
	.st1{fill:#216CA7;}
	.st2{fill:#E8E8E8;}
	.st3{fill-rule:evenodd;clip-rule:evenodd;fill:#216CA7;}
	.st4{fill-rule:evenodd;clip-rule:evenodd;fill:#3996C8;}
	.st5{fill-rule:evenodd;clip-rule:evenodd;fill:#3F3F3F;}
	.st6{fill-rule:evenodd;clip-rule:evenodd;fill:#FFDA44;}
	.st7{fill-rule:evenodd;clip-rule:evenodd;fill:#E8E8E8;}
	.st8{fill:#3F3F3F;}
	.st9{fill:#FFFFFF;}
	.st10{fill:#F0F0F0;}
	.st11{fill:#D80027;}
	.st12{fill:#0052B4;}
	.st13{fill:#FFDA44;}
	.st14{fill:#A0A0A0;}
	.st15{fill:none;stroke:#3F3F3F;stroke-width:0.5;stroke-miterlimit:10;}
	.st16{clip-path:url(#SVGID_8_);}
	.st17{fill:none;stroke:#FA3D39;stroke-width:10;stroke-miterlimit:10;}
	.st18{fill:#FA3D39;}
	.st19{filter:url(#Adobe_OpacityMaskFilter);}
	.st20{opacity:0.6;fill:url(#SVGID_10_);}
	.st21{mask:url(#SVGID_9_);}
	.st22{fill:none;stroke:#FFFFFF;stroke-width:4;stroke-miterlimit:10;}
	.st23{fill-rule:evenodd;clip-rule:evenodd;fill:#ADADAC;}
	.st24{fill-rule:evenodd;clip-rule:evenodd;fill:#426A8F;}
	.st25{fill-rule:evenodd;clip-rule:evenodd;}
	.st26{fill:#E5E5E6;}
	.st27{fill-rule:evenodd;clip-rule:evenodd;fill:#FFFFFF;}
	.st28{fill-rule:evenodd;clip-rule:evenodd;fill:#2D2B2A;}
	.st29{fill:#2D2B2A;}
	.st30{fill:#406D8D;}
	.st31{fill:#406C3C;}
	.st32{fill:#496977;}
	.st33{opacity:0.05;fill:#FFFFFF;}
	.st34{opacity:0.2;fill:#5D5D5D;}
	.st35{fill-rule:evenodd;clip-rule:evenodd;fill:url(#SVGID_15_);}
	.st36{fill-rule:evenodd;clip-rule:evenodd;fill:url(#SVGID_16_);}
	.st37{fill-rule:evenodd;clip-rule:evenodd;fill:url(#SVGID_17_);}
	.st38{fill-rule:evenodd;clip-rule:evenodd;fill:url(#SVGID_18_);}
	.st39{fill-rule:evenodd;clip-rule:evenodd;fill:url(#SVGID_19_);}
	.st40{fill-rule:evenodd;clip-rule:evenodd;fill:url(#SVGID_20_);}
	.st41{fill-rule:evenodd;clip-rule:evenodd;fill:url(#SVGID_21_);}
	.st42{fill-rule:evenodd;clip-rule:evenodd;fill:url(#SVGID_22_);}
	.st43{fill:#222220;}
	.st44{fill-rule:evenodd;clip-rule:evenodd;fill:#406D8D;}
	.st45{fill:#84828A;}
	.st46{fill:#A13628;}
	.st47{fill-rule:evenodd;clip-rule:evenodd;fill:#998041;}
	.st48{fill-rule:evenodd;clip-rule:evenodd;fill:#7A6041;}
	.st49{fill-rule:evenodd;clip-rule:evenodd;fill:#806A3F;}
	.st50{fill-rule:evenodd;clip-rule:evenodd;fill:#807942;}
	.st51{fill-rule:evenodd;clip-rule:evenodd;fill:#8A7F5C;}
	.st52{fill:#C79832;}
	.st53{fill:#D0AE4A;}
	.st54{fill:#D5BC80;}
	.st55{fill:#8A7F5C;}
	.st56{fill:#C0927C;}
	.st57{fill:#53804C;}
	.st58{fill:#BEC092;}
	.st59{fill:#BDA8B6;}
	.st60{fill:#7A6041;}
	.st61{fill:#806A3F;}
	.st62{fill:#604B36;}
	.st63{fill:#ADADAD;}
	.st64{fill:#838382;}
	.st65{fill:none;stroke:#FFFFFF;stroke-miterlimit:10;}
	.st66{fill:#3E3E3D;}
	.st67{fill:none;stroke:#FFFFFF;stroke-width:0.1;stroke-miterlimit:10;}
	.st68{fill:#575756;}
	.st69{fill:#000105;}
	.st70{fill:#588080;}
	.st71{fill-rule:evenodd;clip-rule:evenodd;fill:#8FB73B;}
	.st72{fill:none;stroke:#3F3F3F;stroke-miterlimit:10;}
	.st73{fill-rule:evenodd;clip-rule:evenodd;fill:url(#SVGID_35_);}
	.st74{fill-rule:evenodd;clip-rule:evenodd;fill:url(#SVGID_36_);}
	.st75{fill-rule:evenodd;clip-rule:evenodd;fill:url(#SVGID_37_);}
	.st76{fill-rule:evenodd;clip-rule:evenodd;fill:url(#SVGID_38_);}
	.st77{fill-rule:evenodd;clip-rule:evenodd;fill:url(#SVGID_39_);}
	.st78{fill-rule:evenodd;clip-rule:evenodd;fill:url(#SVGID_40_);}
	.st79{fill-rule:evenodd;clip-rule:evenodd;fill:url(#SVGID_41_);}
	.st80{fill-rule:evenodd;clip-rule:evenodd;fill:url(#SVGID_42_);}
	.st81{fill:#F8F9FA;}
	.st82{filter:url(#Adobe_OpacityMaskFilter_1_);}
	.st83{opacity:0.6;fill:url(#SVGID_52_);}
	.st84{mask:url(#SVGID_51_);}
	.st85{filter:url(#Adobe_OpacityMaskFilter_2_);}
	.st86{opacity:0.6;fill:url(#SVGID_56_);}
	.st87{mask:url(#SVGID_55_);}
	.st88{filter:url(#Adobe_OpacityMaskFilter_3_);}
	.st89{opacity:0.6;fill:url(#SVGID_60_);}
	.st90{mask:url(#SVGID_59_);}
	.st91{filter:url(#Adobe_OpacityMaskFilter_4_);}
	.st92{opacity:0.6;fill:url(#SVGID_64_);}
	.st93{mask:url(#SVGID_63_);}
	.st94{filter:url(#Adobe_OpacityMaskFilter_5_);}
	.st95{opacity:0.6;fill:url(#SVGID_68_);}
	.st96{mask:url(#SVGID_67_);}
	.st97{fill:#717272;}
	.st98{fill:none;stroke:#FFFFFF;stroke-width:3;stroke-miterlimit:10;}
	.st99{fill-rule:evenodd;clip-rule:evenodd;fill:url(#SVGID_69_);}
	.st100{fill-rule:evenodd;clip-rule:evenodd;fill:url(#SVGID_70_);}
	.st101{fill-rule:evenodd;clip-rule:evenodd;fill:url(#SVGID_71_);}
	.st102{fill-rule:evenodd;clip-rule:evenodd;fill:url(#SVGID_72_);}
	.st103{fill-rule:evenodd;clip-rule:evenodd;fill:url(#SVGID_73_);}
	.st104{fill-rule:evenodd;clip-rule:evenodd;fill:url(#SVGID_74_);}
	.st105{fill-rule:evenodd;clip-rule:evenodd;fill:url(#SVGID_75_);}
	.st106{fill-rule:evenodd;clip-rule:evenodd;fill:url(#SVGID_76_);}
	.st107{fill-rule:evenodd;clip-rule:evenodd;fill:url(#SVGID_77_);}
	.st108{fill-rule:evenodd;clip-rule:evenodd;fill:url(#SVGID_78_);}
	.st109{fill-rule:evenodd;clip-rule:evenodd;fill:url(#SVGID_79_);}
	.st110{fill-rule:evenodd;clip-rule:evenodd;fill:url(#SVGID_80_);}
	.st111{fill-rule:evenodd;clip-rule:evenodd;fill:url(#SVGID_81_);}
	.st112{fill-rule:evenodd;clip-rule:evenodd;fill:url(#SVGID_82_);}
	.st113{fill-rule:evenodd;clip-rule:evenodd;fill:url(#SVGID_83_);}
	.st114{fill-rule:evenodd;clip-rule:evenodd;fill:url(#SVGID_84_);}
	.st115{fill-rule:evenodd;clip-rule:evenodd;fill:url(#SVGID_85_);}
	.st116{fill-rule:evenodd;clip-rule:evenodd;fill:url(#SVGID_86_);}
	.st117{fill-rule:evenodd;clip-rule:evenodd;fill:url(#SVGID_87_);}
	.st118{fill-rule:evenodd;clip-rule:evenodd;fill:url(#SVGID_88_);}
	.st119{fill-rule:evenodd;clip-rule:evenodd;fill:url(#SVGID_89_);}
	.st120{fill-rule:evenodd;clip-rule:evenodd;fill:url(#SVGID_90_);}
	.st121{fill-rule:evenodd;clip-rule:evenodd;fill:url(#SVGID_91_);}
	.st122{fill-rule:evenodd;clip-rule:evenodd;fill:url(#SVGID_92_);}
	.st123{fill:#CEFF00;}
	.st124{fill:none;stroke:#CEFF00;stroke-miterlimit:10;}
</style>
<g>
	<path class="st1" d="M43.11,459.76c3.6-9.09,7.32-18.13,10.79-27.26c20.63-54.29,41.19-108.61,61.82-162.9
		c0.72-1.9,1.54-4.32,3.06-5.2c1.88-1.09,5.16-1.83,6.73-0.88c1.95,1.18,3.8,4.17,3.92,6.48c0.69,12.94,2.89,25.54,6.96,37.85
		c6.94,21,21.38,35.45,39.93,46.49c14.81,8.82,30.46,15.73,46.85,20.98c3.4,1.09,6.22,2.49,6.48,6.52c0.25,4.01-2.31,5.83-5.56,7.33
		c-56.65,26.1-113.27,52.26-169.91,78.38c-5.08,2.34-6.95,1.81-11.06-2.79C43.11,463.09,43.11,461.42,43.11,459.76z M203.26,383.67
		c-12.07-6.52-24.32-12.6-36.05-19.57c-24.79-14.72-40.74-36.11-46.89-64.51c-0.12-0.53-0.59-0.99-1.14-1.88
		c-3.14,8.38-6.12,16.25-9,24.17c-0.41,1.12-0.48,2.45-0.38,3.65c2.63,31.36,14.26,58.89,35.1,82.52c1.43,1.62,2.57,1.93,4.56,0.95
		c6.57-3.24,13.26-6.25,19.89-9.36C180.83,394.24,192.31,388.83,203.26,383.67z M99.23,350.72c-3.44,9.01-6.37,18.26-10.45,26.97
		c-4.33,9.26-4.96,18.07-1.65,27.81c3.13,9.22,4.96,18.88,7.46,28.73c13.34-6.12,26.22-12.03,39.52-18.13
		C117.24,396.95,105.96,375.24,99.23,350.72z M61.75,449.42c7.48-3.56,13.9-6.63,20.43-9.74c-2.19-8.64-4.28-16.89-6.37-25.14
		c-0.3,0.04-0.6,0.09-0.9,0.13C70.67,425.88,66.43,437.08,61.75,449.42z"/>
	<path class="st1" d="M298.43,43.1c1.6,2.17,3.59,4.17,4.74,6.56c3.89,8.1,7.4,16.39,11.28,24.49c0.75,1.56,2.32,3.1,3.9,3.84
		c8.14,3.8,16.39,7.38,24.64,10.96c3.42,1.49,6.78,3.07,6.72,7.46c-0.06,4.38-3.49,5.88-6.88,7.36
		c-8.11,3.54-16.24,7.05-24.25,10.82c-1.68,0.79-3.38,2.42-4.16,4.09c-3.94,8.39-7.6,16.9-11.3,25.4c-1.34,3.09-3.02,5.65-6.85,5.68
		c-3.82,0.03-5.57-2.41-6.93-5.54c-3.63-8.38-7.2-16.78-11.14-25.01c-0.96-2-2.97-3.96-4.98-4.9c-8.76-4.11-17.78-7.66-26.5-11.85
		c-1.85-0.89-3.5-3.45-4.03-5.54c-0.75-2.96,1.14-5.25,3.98-6.51c8.6-3.82,17.14-7.76,25.82-11.37c2.92-1.21,4.67-2.97,5.87-5.84
		c3.31-7.91,6.74-15.78,10.39-23.53c1.13-2.4,3.11-4.39,4.71-6.57C295.11,43.1,296.77,43.1,298.43,43.1z M295.93,126.1
		c2.48-5.66,4.75-10.22,6.48-14.98c1.54-4.26,4.24-6.81,8.44-8.36c4.73-1.75,9.27-3.99,14.82-6.43c-5.89-2.57-10.82-4.9-15.89-6.88
		c-3.48-1.36-5.65-3.64-7.02-7.07c-2-5.04-4.27-9.97-6.82-15.88c-1.76,4.07-3.41,6.98-4.29,10.11c-2.3,8.17-7.46,13.13-15.55,15.48
		c-3.14,0.91-6.05,2.62-9.84,4.31c5.19,2.25,9.27,4.35,13.56,5.79c5.3,1.78,8.51,5.12,10.3,10.37
		C291.58,116.83,293.67,120.89,295.93,126.1z"/>
	<path class="st1" d="M438.15,43.1c3.37,2.35,4.55,5.55,4.21,9.62c-0.27,3.3,0.03,6.63-0.09,9.95c-0.15,4.23-2.87,7.02-6.63,7.01
		c-3.76,0-6.49-2.79-6.61-7.02c-0.12-4.14-0.52-8.37,0.15-12.41c0.42-2.53,2.59-4.78,3.97-7.15C434.82,43.1,436.49,43.1,438.15,43.1
		z"/>
	<path class="st1" d="M116.02,156.54c1.98-10.35,3.82-19.44,5.34-28.57c0.26-1.56-0.37-3.8-1.43-4.96
		c-4.57-5.01-9.43-9.75-14.23-14.56c-2.22-2.22-3.91-5.01-2.13-7.74c1.31-2.01,3.97-3.82,6.33-4.33c6.07-1.32,12.29-1.96,18.47-2.69
		c2.89-0.34,4.57-1.48,5.67-4.38c2.55-6.72,5.61-13.24,8.37-19.88c1.39-3.35,3.02-6.38,7.25-6.33c4.23,0.05,5.75,3.2,7.14,6.51
		c2.72,6.5,5.75,12.89,8.17,19.51c1.15,3.13,3.02,4.18,6,4.54c6.18,0.75,12.41,1.36,18.47,2.71c2.33,0.52,5.37,2.53,6.04,4.54
		c0.68,2.03-0.51,5.47-2.05,7.3c-4.38,5.16-9.31,9.86-14.12,14.65c-1.59,1.58-2.27,2.99-1.74,5.43c1.81,8.38,3.17,16.85,4.86,25.26
		c0.67,3.3,0.26,6.11-2.6,8.1c-2.93,2.04-5.73,1.24-8.45-0.68c-6.22-4.39-12.56-8.62-18.68-13.14c-2.26-1.66-3.81-1.79-6.15-0.07
		c-6.36,4.66-12.96,9-19.45,13.47c-2.51,1.73-5.33,2.37-7.69,0.35C117.71,160.14,116.8,157.76,116.02,156.54z M175.74,109.09
		c-0.3-0.48-0.6-0.96-0.89-1.45c-3.63-0.55-7.24-1.27-10.89-1.6c-4.51-0.41-7.31-2.55-8.87-6.85c-1.44-3.95-3.39-7.72-5.53-12.47
		c-2.34,5.25-4.3,9.6-6.2,13.98c-1.26,2.9-3.28,4.62-6.52,5.03c-4.06,0.51-8.1,1.26-12.15,1.91c-0.35,0.49-0.69,0.97-1.04,1.46
		c2.33,1.88,4.61,3.83,7,5.63c4.94,3.72,6.16,8.37,4.36,14.27c-1.12,3.68-1.43,7.6-2.26,12.33c4.4-3.04,7.91-5.47,11.42-7.9
		c4.65-3.2,6.47-3.19,11.23,0.06c3.46,2.36,6.92,4.73,11.31,7.72c-1.06-5.63-1.79-10.11-2.76-14.54c-0.87-3.98-0.33-7.37,3-10.08
		C169.93,114.16,172.81,111.59,175.74,109.09z"/>
	<path class="st1" d="M388.78,406.06c1.98-10.32,3.83-19.4,5.36-28.54c0.26-1.56-0.37-3.8-1.43-4.96
		c-4.47-4.91-9.24-9.56-13.94-14.26c-2.18-2.18-3.71-4.55-2.61-7.76c1.13-3.32,3.74-4.44,7.04-4.84c6.04-0.72,12.04-1.76,18.08-2.54
		c2.68-0.34,4.36-1.29,5.44-4.09c2.77-7.22,6.01-14.27,9-21.41c1.28-3.06,3.23-5.18,6.79-5.11c3.36,0.07,5.21,2.14,6.43,5.03
		c2.96,7.01,6.18,13.91,8.82,21.03c1.16,3.13,3.02,4.18,6,4.54c5.91,0.71,11.79,1.62,17.68,2.43c3.21,0.44,5.92,1.68,7.06,4.96
		c1.18,3.38-0.56,5.82-2.83,8.09c-4.6,4.6-9.28,9.14-13.65,13.96c-1.07,1.17-1.74,3.39-1.49,4.95c1.38,8.6,3.06,17.15,4.75,25.7
		c0.62,3.15,0.11,5.82-2.55,7.76c-2.9,2.11-5.7,1.41-8.44-0.52c-6.34-4.46-12.79-8.77-19.03-13.36c-2.17-1.6-3.66-1.52-5.81,0.02
		c-6.52,4.68-13.06,9.37-19.91,13.52c-1.86,1.13-5.22,1.2-7.21,0.29C390.51,410.13,389.61,407.3,388.78,406.06z M397.59,357.02
		c-0.42,0.56-0.83,1.12-1.25,1.68c2.76,2.29,5.5,4.61,8.3,6.86c3.72,2.98,4.31,6.74,3.27,11.18c-1,4.26-1.64,8.6-2.65,14.06
		c4.66-3.23,8.43-5.73,12.07-8.39c3.36-2.46,6.54-2.43,9.9-0.01c3.66,2.64,7.44,5.14,12.02,8.28c-1.07-5.97-1.87-10.95-2.89-15.9
		c-0.68-3.32,0.12-6,2.64-8.22c3.18-2.81,6.35-5.63,9.52-8.45c-0.31-0.41-0.62-0.82-0.92-1.23c-3.76-0.6-7.51-1.44-11.3-1.74
		c-4.29-0.35-6.75-2.49-8.27-6.38c-1.58-4.04-3.52-7.93-5.68-12.73c-2.13,4.92-4.01,8.87-5.55,12.96c-1.41,3.76-3.72,5.91-7.85,6.29
		C405.15,355.63,401.38,356.42,397.59,357.02z"/>
	<path class="st1" d="M366.89,296.83c-1.14-1.2-3.64-2.85-4.75-5.16c-4.08-8.46-7.57-17.21-11.6-25.71c-0.9-1.9-2.78-3.8-4.68-4.68
		c-8.52-3.97-17.2-7.6-25.85-11.27c-3.03-1.28-5.37-3.11-5.45-6.6c-0.08-3.69,2.29-5.6,5.49-6.97c8.39-3.6,16.77-7.22,24.99-11.16
		c2.01-0.96,4.01-2.91,4.97-4.91c4.01-8.35,7.68-16.86,11.35-25.36c1.32-3.07,3.24-5.27,6.7-5.28c3.48-0.01,5.41,2.27,6.72,5.29
		c3.64,8.37,7.19,16.78,11.15,25c1.02,2.11,3.08,4.2,5.19,5.22c8.21,3.98,16.61,7.55,24.97,11.21c2.96,1.3,5.34,3.01,5.44,6.59
		c0.1,3.8-2.34,5.66-5.44,7.04c-8.21,3.66-16.47,7.21-24.55,11.14c-2,0.98-3.97,2.96-4.94,4.97c-4.06,8.48-7.76,17.12-11.53,25.74
		C373.79,294.84,371.79,296.63,366.89,296.83z M368.33,273.01c2.52-5.79,4.72-10.42,6.56-15.18c1.4-3.6,3.67-5.96,7.26-7.43
		c5.17-2.11,10.2-4.55,15.97-7.16c-4.53-1.98-8.09-3.96-11.89-5.11c-6.69-2.02-10.75-6.17-12.82-12.8c-1.19-3.8-3.11-7.38-5.07-11.9
		c-2.78,6.31-4.79,11.64-7.47,16.61c-1.27,2.36-3.51,4.62-5.86,5.87c-5.04,2.69-10.44,4.69-16.44,7.3
		c5.69,2.5,10.54,4.83,15.54,6.77c3.62,1.4,5.97,3.65,7.39,7.27C363.44,262.24,365.73,267.08,368.33,273.01z"/>
	<path class="st1" d="M236.03,143.72c-1.84,22.18-7.02,43.34-14.89,63.85c-13.71,35.75-33.41,67.93-58.02,97.17
		c-0.97,1.16-1.97,2.37-3.2,3.23c-2.71,1.9-5.56,1.73-8.01-0.46c-2.58-2.3-3.08-5.19-1.35-8.26c0.6-1.07,1.51-1.97,2.3-2.93
		c29.53-36.22,52.7-75.84,64.29-121.49c2.64-10.41,3.81-21.2,5.55-31.84c0.69-4.24,3.28-6.89,6.99-6.73
		C233.58,136.43,236.13,139.53,236.03,143.72z"/>
	<path class="st1" d="M329.15,204.35c-0.82,0.94-2.01,3.5-3.95,4.34c-34.03,14.77-61.28,39.01-88.22,63.51
		c-16.48,14.99-31.94,31.1-47.86,46.71c-0.1,0.1-0.19,0.2-0.29,0.3c-3.72,3.81-7.47,4.34-10.51,1.49c-3.06-2.87-2.83-6.79,0.8-10.56
		c6.82-7.08,13.6-14.21,20.6-21.11c27.25-26.85,55.21-52.94,87.17-74.21c10.3-6.86,21.61-12.26,32.68-17.87
		C324.41,194.5,329.3,197.94,329.15,204.35z"/>
	<path class="st1" d="M330.78,321.75c2.51,0.17,6.79,0.43,11.07,0.77c4.77,0.37,7.63,3.25,7.29,7.24c-0.35,3.99-3.57,6.47-8.42,5.95
		c-18.19-1.98-35.94,0.58-53.39,5.4c-21.05,5.81-40.83,14.64-59.55,25.91c-1.95,1.17-4.89,2.11-6.83,1.49
		c-1.92-0.62-4.35-3.34-4.38-5.18c-0.04-2.28,1.57-5.6,3.49-6.72c9.67-5.62,19.45-11.17,29.6-15.83
		C274.81,329.22,301.11,322.1,330.78,321.75z"/>
	<path class="st1" d="M158.82,211.5c-0.48,23.68-3.26,47-8.53,70.04c-0.8,3.52-1.86,6.75-5.98,7.61c-5.56,1.16-9.1-3.06-7.88-9.28
		c1.75-8.96,3.72-17.89,5.09-26.91c3.69-24.22,4.16-48.54,1.66-72.92c-0.11-1.1-0.24-2.21-0.24-3.31c0-4.01,2.38-6.84,5.99-7.19
		c3.76-0.36,6.92,2.16,7.26,6.34C157.18,187.75,157.96,199.63,158.82,211.5z"/>
	<path class="st1" d="M89.35,236.9c-1.95-1.69-4.57-3.02-5.73-5.15c-4.57-8.37-8.77-16.95-12.93-25.53
		c-2.35-4.83-0.45-8.79,4.78-10.18c8.29-2.2,16.61-4.28,24.93-6.34c4-0.99,7.01,0.24,8.9,4.1c4.15,8.44,8.46,16.8,12.59,25.25
		c2.25,4.61,0.89,8.86-3.61,10.13c-8.91,2.51-17.95,4.58-26.94,6.81c-0.39,0.1-0.83,0.05-1.24,0.07
		C89.84,236.33,89.59,236.61,89.35,236.9z M86.03,207.25c2.6,5.07,4.97,9.68,7.39,14.4c4.53-1.17,8.65-2.23,13.21-3.4
		c-2.49-4.93-4.82-9.56-7.23-14.34C94.94,205.03,90.81,206.06,86.03,207.25z"/>
	<path class="st1" d="M429.51,142.4c-0.87,2.2-1.33,3.65-1.99,4.99c-3.92,7.93-7.84,15.86-11.85,23.75
		c-3.08,6.06-7.64,6.75-12.54,1.9c-8.16-8.08-16.3-16.19-24.39-24.34c-4.4-4.43-3.99-8.48,1.17-11.98
		c5.84-3.96,11.78-7.77,17.57-11.78c3.24-2.24,6.26-2.45,9.56-0.18c6.04,4.15,12.28,8.02,18.21,12.32
		C427.09,138.39,428.2,140.71,429.51,142.4z M407.23,158.21c2.21-4.42,4.32-8.66,6.51-13.04c-3.53-2.36-6.58-4.51-9.76-6.44
		c-0.75-0.45-2.19-0.56-2.9-0.13c-2.77,1.67-5.37,3.61-7.77,5.28C398.06,148.76,402.47,153.31,407.23,158.21z"/>
	<path class="st1" d="M309.23,283.22c-0.28,3.06-2.32,5.33-5.85,5.93c-31.62,5.4-57.17,22.17-80.64,42.88
		c-0.73,0.64-1.38,1.37-2.14,1.97c-3.18,2.51-6.81,2.36-9.34-0.33c-2.51-2.66-2.7-6.63,0.27-9.3c6.58-5.92,13.21-11.86,20.3-17.14
		c18.93-14.09,39.43-25.1,62.78-30.02c2.57-0.54,5.17-1.1,7.78-1.27C306.33,275.7,309.32,278.77,309.23,283.22z"/>
	<path class="st1" d="M290.05,435.82c-1.45,2.01-2.35,4.2-3.98,5.36c-6.41,4.57-13.03,8.84-19.6,13.18c-3.1,2.05-6.13,1.61-8.69-0.9
		c-6.62-6.48-13.19-13-19.64-19.65c-2.96-3.05-2.93-6.55,0-9.63c4.28-4.51,8.71-8.89,13.2-13.19c2.63-2.52,5.74-2.74,8.69-0.56
		c8.89,6.57,17.76,13.17,26.49,19.95C287.99,431.53,288.7,433.68,290.05,435.82z M270.92,435.49c-4.96-3.82-9.59-7.39-14.32-11.03
		c-1.67,1.75-2.97,3.1-4.69,4.9c2.3,2.07,4.32,3.76,6.19,5.59C263.81,440.57,263.79,440.6,270.92,435.49z"/>
	<path class="st1" d="M429.02,96.26c0-2.22-0.12-4.44,0.03-6.65c0.25-3.94,3.03-6.6,6.66-6.57c3.47,0.03,6.34,2.56,6.51,6.26
		c0.21,4.7,0.22,9.43-0.01,14.13c-0.18,3.66-3.16,6.19-6.61,6.16c-3.47-0.03-6.23-2.58-6.52-6.27c-0.18-2.34-0.03-4.71-0.03-7.06
		C429.04,96.26,429.03,96.26,429.02,96.26z"/>
	<path class="st1" d="M455.65,69.75c2.36,0,4.72-0.16,7.06,0.04c3.66,0.31,6.2,3.15,6.18,6.61c-0.02,3.46-2.56,6.36-6.25,6.53
		c-4.7,0.22-9.43,0.22-14.13-0.01c-3.67-0.18-6.19-3.13-6.17-6.59c0.02-3.47,2.56-6.15,6.24-6.57c0.27-0.03,0.55-0.03,0.83-0.03
		c2.08,0,4.16,0,6.24,0C455.65,69.73,455.65,69.74,455.65,69.75z"/>
	<path class="st1" d="M329.25,389.09c0-2.36-0.16-4.72,0.03-7.06c0.3-3.69,3.07-6.22,6.55-6.23c3.46-0.02,6.4,2.51,6.58,6.18
		c0.23,4.7,0.22,9.43,0,14.13c-0.17,3.69-3.08,6.22-6.54,6.24c-3.46,0.02-6.29-2.52-6.6-6.19
		C329.09,393.81,329.25,391.45,329.25,389.09z"/>
	<path class="st1" d="M415.68,82.97c-2.36,0-4.72,0.16-7.06-0.04c-3.68-0.31-6.2-3.12-6.2-6.59c0.01-3.47,2.53-6.38,6.21-6.55
		c4.7-0.22,9.43-0.22,14.13,0c3.68,0.17,6.21,3.1,6.2,6.56c0,3.46-2.54,6.26-6.22,6.57C420.41,83.13,418.04,82.98,415.68,82.97z"/>
	<path class="st1" d="M315.73,415.63c-2.36,0-4.73,0.18-7.06-0.04c-3.62-0.34-6.23-3.3-6.01-6.73c0.23-3.67,2.32-6.1,5.93-6.35
		c4.83-0.33,9.7-0.27,14.54-0.03c3.62,0.18,6.24,3.27,6.02,6.7c-0.23,3.67-2.33,5.93-5.94,6.38
		C320.75,415.87,318.22,415.62,315.73,415.63z"/>
	<path class="st1" d="M355.61,415.65c-2.22,0-4.44,0.13-6.65-0.03c-3.89-0.29-6.53-3.18-6.42-6.8c0.11-3.46,2.68-6.22,6.41-6.37
		c4.56-0.19,9.15-0.19,13.71,0c3.89,0.16,6.54,3.17,6.42,6.78c-0.11,3.45-2.7,6.13-6.41,6.4
		C360.33,415.79,357.97,415.65,355.61,415.65z"/>
	<path class="st1" d="M329.23,428.73c0-2.22-0.13-4.44,0.03-6.65c0.27-3.71,2.96-6.28,6.42-6.37c3.62-0.1,6.59,2.55,6.75,6.46
		c0.19,4.56,0.19,9.15-0.01,13.71c-0.16,3.71-2.96,6.29-6.41,6.38c-3.61,0.1-6.49-2.57-6.76-6.46
		C329.1,433.45,329.23,431.09,329.23,428.73z"/>
	<path class="st1" d="M156.48,322.61c4.4,0,8.4,0,12.72,0c0,4.25,0,8.44,0,12.94c-4.08,0-8.27,0-12.72,0
		C156.48,331.36,156.48,327.17,156.48,322.61z"/>
	<path class="st1" d="M202.56,348.95c-4.27,0-8.37,0-12.77,0c0-4.18,0-8.38,0-12.84c4.15,0,8.34,0,12.77,0
		C202.56,340.27,202.56,344.36,202.56,348.95z"/>
</g>
</svg>
