<?xml version="1.0" encoding="utf-8"?>
<!-- Generator: Adobe Illustrator 23.0.4, SVG Export Plug-In . SVG Version: 6.00 Build 0)  -->
<svg version="1.1" id="Capa_1" xmlns="http://www.w3.org/2000/svg" xmlns:xlink="http://www.w3.org/1999/xlink" x="0px" y="0px"
	 viewBox="0 0 100 100" style="enable-background:new 0 0 100 100;" xml:space="preserve">
<style type="text/css">
	.st0{opacity:0.4;}
	.st1{fill:#216CA7;}
	.st2{fill:#E8E8E8;}
	.st3{fill-rule:evenodd;clip-rule:evenodd;fill:#216CA7;}
	.st4{fill-rule:evenodd;clip-rule:evenodd;fill:#3996C8;}
	.st5{fill-rule:evenodd;clip-rule:evenodd;fill:#3F3F3F;}
	.st6{fill-rule:evenodd;clip-rule:evenodd;fill:#FFDA44;}
	.st7{fill-rule:evenodd;clip-rule:evenodd;fill:#E8E8E8;}
	.st8{fill:#3F3F3F;}
	.st9{fill:#FFFFFF;}
	.st10{fill:#F0F0F0;}
	.st11{fill:#D80027;}
	.st12{fill:#0052B4;}
	.st13{fill:#FFDA44;}
	.st14{fill:#A0A0A0;}
	.st15{fill:none;stroke:#3F3F3F;stroke-width:0.5;stroke-miterlimit:10;}
	.st16{clip-path:url(#SVGID_8_);}
	.st17{fill:none;stroke:#FA3D39;stroke-width:10;stroke-miterlimit:10;}
	.st18{fill:#FA3D39;}
	.st19{filter:url(#Adobe_OpacityMaskFilter);}
	.st20{opacity:0.6;fill:url(#SVGID_10_);}
	.st21{mask:url(#SVGID_9_);}
	.st22{fill:none;stroke:#FFFFFF;stroke-width:4;stroke-miterlimit:10;}
	.st23{fill-rule:evenodd;clip-rule:evenodd;fill:#ADADAC;}
	.st24{fill-rule:evenodd;clip-rule:evenodd;fill:#426A8F;}
	.st25{fill-rule:evenodd;clip-rule:evenodd;}
	.st26{fill:#E5E5E6;}
	.st27{fill-rule:evenodd;clip-rule:evenodd;fill:#FFFFFF;}
	.st28{fill-rule:evenodd;clip-rule:evenodd;fill:#2D2B2A;}
	.st29{fill:#2D2B2A;}
	.st30{fill:#406D8D;}
	.st31{fill:#406C3C;}
	.st32{fill:#496977;}
	.st33{opacity:0.05;fill:#FFFFFF;}
	.st34{opacity:0.2;fill:#5D5D5D;}
	.st35{fill-rule:evenodd;clip-rule:evenodd;fill:url(#SVGID_15_);}
	.st36{fill-rule:evenodd;clip-rule:evenodd;fill:url(#SVGID_16_);}
	.st37{fill-rule:evenodd;clip-rule:evenodd;fill:url(#SVGID_17_);}
	.st38{fill-rule:evenodd;clip-rule:evenodd;fill:url(#SVGID_18_);}
	.st39{fill-rule:evenodd;clip-rule:evenodd;fill:url(#SVGID_19_);}
	.st40{fill-rule:evenodd;clip-rule:evenodd;fill:url(#SVGID_20_);}
	.st41{fill-rule:evenodd;clip-rule:evenodd;fill:url(#SVGID_21_);}
	.st42{fill-rule:evenodd;clip-rule:evenodd;fill:url(#SVGID_22_);}
	.st43{fill:#222220;}
	.st44{fill-rule:evenodd;clip-rule:evenodd;fill:#406D8D;}
	.st45{fill:#84828A;}
	.st46{fill:#A13628;}
	.st47{fill-rule:evenodd;clip-rule:evenodd;fill:#998041;}
	.st48{fill-rule:evenodd;clip-rule:evenodd;fill:#7A6041;}
	.st49{fill-rule:evenodd;clip-rule:evenodd;fill:#806A3F;}
	.st50{fill-rule:evenodd;clip-rule:evenodd;fill:#807942;}
	.st51{fill-rule:evenodd;clip-rule:evenodd;fill:#8A7F5C;}
	.st52{fill:#C79832;}
	.st53{fill:#D0AE4A;}
	.st54{fill:#D5BC80;}
	.st55{fill:#8A7F5C;}
	.st56{fill:#C0927C;}
	.st57{fill:#53804C;}
	.st58{fill:#BEC092;}
	.st59{fill:#BDA8B6;}
	.st60{fill:#7A6041;}
	.st61{fill:#806A3F;}
	.st62{fill:#604B36;}
	.st63{fill:#ADADAD;}
	.st64{fill:#838382;}
	.st65{fill:none;stroke:#FFFFFF;stroke-miterlimit:10;}
	.st66{fill:#3E3E3D;}
	.st67{fill:none;stroke:#FFFFFF;stroke-width:0.1;stroke-miterlimit:10;}
	.st68{fill:#575756;}
	.st69{fill:#000105;}
	.st70{fill:#588080;}
	.st71{fill-rule:evenodd;clip-rule:evenodd;fill:#8FB73B;}
	.st72{fill:none;stroke:#3F3F3F;stroke-miterlimit:10;}
	.st73{fill-rule:evenodd;clip-rule:evenodd;fill:url(#SVGID_35_);}
	.st74{fill-rule:evenodd;clip-rule:evenodd;fill:url(#SVGID_36_);}
	.st75{fill-rule:evenodd;clip-rule:evenodd;fill:url(#SVGID_37_);}
	.st76{fill-rule:evenodd;clip-rule:evenodd;fill:url(#SVGID_38_);}
	.st77{fill-rule:evenodd;clip-rule:evenodd;fill:url(#SVGID_39_);}
	.st78{fill-rule:evenodd;clip-rule:evenodd;fill:url(#SVGID_40_);}
	.st79{fill-rule:evenodd;clip-rule:evenodd;fill:url(#SVGID_41_);}
	.st80{fill-rule:evenodd;clip-rule:evenodd;fill:url(#SVGID_42_);}
	.st81{fill:#F8F9FA;}
	.st82{filter:url(#Adobe_OpacityMaskFilter_1_);}
	.st83{opacity:0.6;fill:url(#SVGID_52_);}
	.st84{mask:url(#SVGID_51_);}
	.st85{filter:url(#Adobe_OpacityMaskFilter_2_);}
	.st86{opacity:0.6;fill:url(#SVGID_56_);}
	.st87{mask:url(#SVGID_55_);}
	.st88{filter:url(#Adobe_OpacityMaskFilter_3_);}
	.st89{opacity:0.6;fill:url(#SVGID_60_);}
	.st90{mask:url(#SVGID_59_);}
	.st91{filter:url(#Adobe_OpacityMaskFilter_4_);}
	.st92{opacity:0.6;fill:url(#SVGID_64_);}
	.st93{mask:url(#SVGID_63_);}
	.st94{filter:url(#Adobe_OpacityMaskFilter_5_);}
	.st95{opacity:0.6;fill:url(#SVGID_68_);}
	.st96{mask:url(#SVGID_67_);}
	.st97{fill:#717272;}
	.st98{fill:none;stroke:#FFFFFF;stroke-width:3;stroke-miterlimit:10;}
	.st99{fill-rule:evenodd;clip-rule:evenodd;fill:url(#SVGID_69_);}
	.st100{fill-rule:evenodd;clip-rule:evenodd;fill:url(#SVGID_70_);}
	.st101{fill-rule:evenodd;clip-rule:evenodd;fill:url(#SVGID_71_);}
	.st102{fill-rule:evenodd;clip-rule:evenodd;fill:url(#SVGID_72_);}
	.st103{fill-rule:evenodd;clip-rule:evenodd;fill:url(#SVGID_73_);}
	.st104{fill-rule:evenodd;clip-rule:evenodd;fill:url(#SVGID_74_);}
	.st105{fill-rule:evenodd;clip-rule:evenodd;fill:url(#SVGID_75_);}
	.st106{fill-rule:evenodd;clip-rule:evenodd;fill:url(#SVGID_76_);}
	.st107{fill-rule:evenodd;clip-rule:evenodd;fill:url(#SVGID_77_);}
	.st108{fill-rule:evenodd;clip-rule:evenodd;fill:url(#SVGID_78_);}
	.st109{fill-rule:evenodd;clip-rule:evenodd;fill:url(#SVGID_79_);}
	.st110{fill-rule:evenodd;clip-rule:evenodd;fill:url(#SVGID_80_);}
	.st111{fill-rule:evenodd;clip-rule:evenodd;fill:url(#SVGID_81_);}
	.st112{fill-rule:evenodd;clip-rule:evenodd;fill:url(#SVGID_82_);}
	.st113{fill-rule:evenodd;clip-rule:evenodd;fill:url(#SVGID_83_);}
	.st114{fill-rule:evenodd;clip-rule:evenodd;fill:url(#SVGID_84_);}
	.st115{fill-rule:evenodd;clip-rule:evenodd;fill:url(#SVGID_85_);}
	.st116{fill-rule:evenodd;clip-rule:evenodd;fill:url(#SVGID_86_);}
	.st117{fill-rule:evenodd;clip-rule:evenodd;fill:url(#SVGID_87_);}
	.st118{fill-rule:evenodd;clip-rule:evenodd;fill:url(#SVGID_88_);}
	.st119{fill-rule:evenodd;clip-rule:evenodd;fill:url(#SVGID_89_);}
	.st120{fill-rule:evenodd;clip-rule:evenodd;fill:url(#SVGID_90_);}
	.st121{fill-rule:evenodd;clip-rule:evenodd;fill:url(#SVGID_91_);}
	.st122{fill-rule:evenodd;clip-rule:evenodd;fill:url(#SVGID_92_);}
	.st123{fill:#CEFF00;}
	.st124{fill:none;stroke:#CEFF00;stroke-miterlimit:10;}
	.st125{filter:url(#Adobe_OpacityMaskFilter_6_);}
	.st126{opacity:0.6;fill:url(#SVGID_96_);}
	.st127{mask:url(#SVGID_95_);}
	.st128{fill:#B8D100;}
	.st129{fill:#45A521;}
	.st130{fill:#A32121;}
</style>
<g>
	<g>
		<path class="st9" d="M52.49,89.87c-1.66,0-3.32,0-4.98,0c-0.22-0.05-0.45-0.1-0.68-0.14c-1.64-0.23-3.3-0.36-4.92-0.7
			C21.71,84.85,7.95,65.8,10.42,45.38c1.32-10.96,6.37-19.92,15.03-26.72c9.1-7.15,19.51-9.75,30.93-8
			c7.62,1.16,14.33,4.43,20.08,9.57c6.88,6.16,11.18,13.8,12.8,22.91c0.26,1.45,0.41,2.92,0.61,4.38c0,1.66,0,3.32,0,4.98
			c-0.04,0.2-0.11,0.4-0.13,0.6c-0.47,6.15-2.23,11.91-5.44,17.17c-6.33,10.37-15.47,16.74-27.43,19
			C55.42,89.53,53.95,89.67,52.49,89.87z M50.02,82.93c18.19-0.04,32.95-14.81,32.91-32.95c-0.04-18.19-14.81-32.94-32.94-32.91
			c-18.18,0.04-32.94,14.81-32.91,32.94C17.1,68.2,31.89,82.96,50.02,82.93z"/>
		<path class="st9" d="M69.04,32.88c-0.05,0.16-0.12,0.49-0.25,0.79c-3.36,7.86-6.74,15.72-10.09,23.58
			c-0.31,0.72-0.78,1.17-1.5,1.48c-7.82,3.33-15.63,6.68-23.44,10.03c-0.82,0.35-1.61,0.49-2.31-0.19c-0.7-0.68-0.58-1.47-0.22-2.3
			c3.36-7.83,6.72-15.67,10.07-23.5c0.28-0.65,0.68-1.12,1.36-1.4c7.91-3.38,15.81-6.78,23.72-10.16
			C67.79,30.58,69.06,31.31,69.04,32.88z M46.55,50c0,1.93,1.52,3.45,3.45,3.45c1.93,0,3.45-1.52,3.45-3.45
			c0-1.93-1.52-3.45-3.45-3.45C48.07,46.55,46.55,48.07,46.55,50z"/>
	</g>
</g>
</svg>
