<?xml version="1.0" standalone="no"?>
<!DOCTYPE svg PUBLIC "-//W3C//DTD SVG 20010904//EN"
 "http://www.w3.org/TR/2001/REC-SVG-20010904/DTD/svg10.dtd">
<svg version="1.0" xmlns="http://www.w3.org/2000/svg"
 width="512.000000pt" height="512.000000pt" viewBox="0 0 512.000000 512.000000"
 preserveAspectRatio="xMidYMid meet">

<g transform="translate(0.000000,512.000000) scale(0.100000,-0.100000)"
fill="#000000" stroke="none">
<path d="M2440 4514 c-333 -38 -579 -198 -757 -490 -244 -401 -210 -903 101
-1472 31 -57 56 -107 56 -112 0 -6 -89 -10 -230 -10 -260 0 -276 -4 -309 -68
-10 -20 -126 -287 -256 -592 -131 -305 -284 -662 -341 -793 -123 -280 -125
-293 -61 -355 l43 -42 1883 0 1883 0 39 39 c30 29 39 47 39 72 0 22 -118 310
-336 819 -185 432 -347 808 -360 835 -39 83 -46 85 -313 85 -149 0 -231 4
-231 10 0 6 36 82 80 170 170 340 230 551 230 810 -1 545 -324 970 -813 1071
-88 18 -281 31 -347 23z m340 -254 c390 -112 626 -489 589 -938 -28 -337 -249
-778 -672 -1340 -110 -147 -132 -170 -145 -160 -21 18 -226 293 -314 423 -156
228 -290 470 -377 679 -122 293 -141 521 -65 785 49 169 132 300 257 401 99
82 260 152 392 173 70 12 261 -2 335 -23z m-792 -2067 c11 -10 58 -75 105
-144 l86 -125 -517 -265 c-284 -146 -518 -262 -520 -259 -5 12 330 785 346
798 12 9 77 12 248 12 206 0 234 -2 252 -17z m1645 11 c19 -7 351 -778 344
-797 -4 -11 -428 -235 -1047 -553 -68 -36 -83 -39 -168 -42 -51 -2 -108 -1
-127 2 -28 6 -97 70 -383 357 -328 330 -347 352 -328 364 12 7 105 55 208 107
l188 95 82 -99 c107 -130 154 -153 221 -109 16 10 132 157 258 327 126 170
241 319 255 332 24 21 31 22 254 22 125 0 235 -3 243 -6z m-1656 -1086 c161
-161 293 -296 293 -300 0 -5 -310 -8 -690 -8 -379 0 -690 4 -690 8 0 5 22 60
49 123 l49 114 344 177 c188 98 345 177 348 178 3 0 137 -132 297 -292z m2188
-123 c40 -93 71 -173 68 -177 -2 -5 -198 -8 -436 -8 -316 0 -428 3 -420 11 6
6 166 92 355 190 248 129 345 175 351 166 5 -7 41 -88 82 -182z"/>
<path d="M2449 3804 c-99 -34 -192 -135 -220 -239 -6 -22 -9 -72 -7 -112 8
-127 81 -234 198 -291 46 -22 69 -26 140 -26 71 -1 94 4 141 26 78 36 133 89
169 162 56 115 47 246 -25 352 -38 54 -66 79 -135 114 -59 31 -193 38 -261 14z
m183 -234 c56 -44 61 -125 9 -174 -77 -73 -191 -20 -191 90 0 28 8 44 34 70
29 29 41 34 79 34 29 0 53 -7 69 -20z"/>
</g>
</svg>
