<?xml version="1.0" encoding="utf-8"?>
<!-- Generator: Adobe Illustrator 23.0.4, SVG Export Plug-In . SVG Version: 6.00 Build 0)  -->
<svg version="1.1" id="Capa_1" xmlns="http://www.w3.org/2000/svg" xmlns:xlink="http://www.w3.org/1999/xlink" x="0px" y="0px"
	 viewBox="0 0 512 512" style="enable-background:new 0 0 512 512;" xml:space="preserve">
<style type="text/css">
	.st0{opacity:0.4;}
	.st1{fill:#216CA7;}
	.st2{fill:#E8E8E8;}
	.st3{fill-rule:evenodd;clip-rule:evenodd;fill:#216CA7;}
	.st4{fill-rule:evenodd;clip-rule:evenodd;fill:#3996C8;}
	.st5{fill-rule:evenodd;clip-rule:evenodd;fill:#3F3F3F;}
	.st6{fill:#3F3F3F;}
	.st7{fill:#FFFFFF;}
	.st8{fill:#F0F0F0;}
	.st9{fill:#D80027;}
	.st10{fill:#0052B4;}
	.st11{fill:#FFDA44;}
	.st12{fill:#A0A0A0;}
	.st13{fill:none;stroke:#3F3F3F;stroke-width:0.5;stroke-miterlimit:10;}
	.st14{clip-path:url(#SVGID_8_);}
	.st15{fill:none;stroke:#FA3D39;stroke-width:10;stroke-miterlimit:10;}
	.st16{fill:#FA3D39;}
	.st17{filter:url(#Adobe_OpacityMaskFilter);}
	.st18{opacity:0.6;fill:url(#SVGID_10_);}
	.st19{mask:url(#SVGID_9_);}
	.st20{fill:none;stroke:#FFFFFF;stroke-width:4;stroke-miterlimit:10;}
	.st21{fill-rule:evenodd;clip-rule:evenodd;fill:#ADADAC;}
	.st22{fill-rule:evenodd;clip-rule:evenodd;fill:#426A8F;}
	.st23{fill-rule:evenodd;clip-rule:evenodd;}
	.st24{fill:#E5E5E6;}
	.st25{fill-rule:evenodd;clip-rule:evenodd;fill:#FFFFFF;}
	.st26{fill-rule:evenodd;clip-rule:evenodd;fill:#2D2B2A;}
	.st27{fill:#2D2B2A;}
	.st28{fill:#406D8D;}
	.st29{fill:#406C3C;}
	.st30{fill:#496977;}
	.st31{opacity:0.05;fill:#FFFFFF;}
	.st32{opacity:0.2;fill:#5D5D5D;}
	.st33{fill-rule:evenodd;clip-rule:evenodd;fill:url(#SVGID_15_);}
	.st34{fill-rule:evenodd;clip-rule:evenodd;fill:url(#SVGID_16_);}
	.st35{fill-rule:evenodd;clip-rule:evenodd;fill:url(#SVGID_17_);}
	.st36{fill-rule:evenodd;clip-rule:evenodd;fill:url(#SVGID_18_);}
	.st37{fill-rule:evenodd;clip-rule:evenodd;fill:url(#SVGID_19_);}
	.st38{fill-rule:evenodd;clip-rule:evenodd;fill:url(#SVGID_20_);}
	.st39{fill-rule:evenodd;clip-rule:evenodd;fill:url(#SVGID_21_);}
	.st40{fill-rule:evenodd;clip-rule:evenodd;fill:url(#SVGID_22_);}
	.st41{fill:#222220;}
	.st42{fill-rule:evenodd;clip-rule:evenodd;fill:#406D8D;}
	.st43{fill:#84828A;}
	.st44{fill:#A13628;}
	.st45{fill-rule:evenodd;clip-rule:evenodd;fill:#998041;}
	.st46{fill-rule:evenodd;clip-rule:evenodd;fill:#7A6041;}
	.st47{fill-rule:evenodd;clip-rule:evenodd;fill:#806A3F;}
	.st48{fill-rule:evenodd;clip-rule:evenodd;fill:#807942;}
	.st49{fill-rule:evenodd;clip-rule:evenodd;fill:#8A7F5C;}
	.st50{fill:#C79832;}
	.st51{fill:#D0AE4A;}
	.st52{fill:#D5BC80;}
	.st53{fill:#8A7F5C;}
	.st54{fill:#C0927C;}
	.st55{fill:#53804C;}
	.st56{fill:#BEC092;}
	.st57{fill:#BDA8B6;}
	.st58{fill:#7A6041;}
	.st59{fill:#806A3F;}
	.st60{fill:#604B36;}
	.st61{fill:#ADADAD;}
	.st62{fill:#838382;}
	.st63{fill:none;stroke:#FFFFFF;stroke-miterlimit:10;}
	.st64{fill:#3E3E3D;}
	.st65{fill:none;stroke:#FFFFFF;stroke-width:0.1;stroke-miterlimit:10;}
	.st66{fill:#575756;}
	.st67{fill:#000105;}
	.st68{fill:#588080;}
	.st69{fill-rule:evenodd;clip-rule:evenodd;fill:#8FB73B;}
	.st70{fill:none;stroke:#3F3F3F;stroke-miterlimit:10;}
	.st71{fill-rule:evenodd;clip-rule:evenodd;fill:url(#SVGID_35_);}
	.st72{fill-rule:evenodd;clip-rule:evenodd;fill:url(#SVGID_36_);}
	.st73{fill-rule:evenodd;clip-rule:evenodd;fill:url(#SVGID_37_);}
	.st74{fill-rule:evenodd;clip-rule:evenodd;fill:url(#SVGID_38_);}
	.st75{fill-rule:evenodd;clip-rule:evenodd;fill:url(#SVGID_39_);}
	.st76{fill-rule:evenodd;clip-rule:evenodd;fill:url(#SVGID_40_);}
	.st77{fill-rule:evenodd;clip-rule:evenodd;fill:url(#SVGID_41_);}
	.st78{fill-rule:evenodd;clip-rule:evenodd;fill:url(#SVGID_42_);}
	.st79{fill:#F8F9FA;}
	.st80{filter:url(#Adobe_OpacityMaskFilter_1_);}
	.st81{opacity:0.6;fill:url(#SVGID_52_);}
	.st82{mask:url(#SVGID_51_);}
	.st83{filter:url(#Adobe_OpacityMaskFilter_2_);}
	.st84{opacity:0.6;fill:url(#SVGID_56_);}
	.st85{mask:url(#SVGID_55_);}
	.st86{filter:url(#Adobe_OpacityMaskFilter_3_);}
	.st87{opacity:0.6;fill:url(#SVGID_60_);}
	.st88{mask:url(#SVGID_59_);}
	.st89{filter:url(#Adobe_OpacityMaskFilter_4_);}
	.st90{opacity:0.6;fill:url(#SVGID_64_);}
	.st91{mask:url(#SVGID_63_);}
	.st92{filter:url(#Adobe_OpacityMaskFilter_5_);}
	.st93{opacity:0.6;fill:url(#SVGID_68_);}
	.st94{mask:url(#SVGID_67_);}
	.st95{fill:#717272;}
	.st96{fill:none;stroke:#FFFFFF;stroke-width:3;stroke-miterlimit:10;}
	.st97{fill-rule:evenodd;clip-rule:evenodd;fill:url(#SVGID_69_);}
	.st98{fill-rule:evenodd;clip-rule:evenodd;fill:url(#SVGID_70_);}
	.st99{fill-rule:evenodd;clip-rule:evenodd;fill:url(#SVGID_71_);}
	.st100{fill-rule:evenodd;clip-rule:evenodd;fill:url(#SVGID_72_);}
	.st101{fill-rule:evenodd;clip-rule:evenodd;fill:url(#SVGID_73_);}
	.st102{fill-rule:evenodd;clip-rule:evenodd;fill:url(#SVGID_74_);}
	.st103{fill-rule:evenodd;clip-rule:evenodd;fill:url(#SVGID_75_);}
	.st104{fill-rule:evenodd;clip-rule:evenodd;fill:url(#SVGID_76_);}
	.st105{fill-rule:evenodd;clip-rule:evenodd;fill:url(#SVGID_77_);}
	.st106{fill-rule:evenodd;clip-rule:evenodd;fill:url(#SVGID_78_);}
	.st107{fill-rule:evenodd;clip-rule:evenodd;fill:url(#SVGID_79_);}
	.st108{fill-rule:evenodd;clip-rule:evenodd;fill:url(#SVGID_80_);}
	.st109{fill-rule:evenodd;clip-rule:evenodd;fill:url(#SVGID_81_);}
	.st110{fill-rule:evenodd;clip-rule:evenodd;fill:url(#SVGID_82_);}
	.st111{fill-rule:evenodd;clip-rule:evenodd;fill:url(#SVGID_83_);}
	.st112{fill-rule:evenodd;clip-rule:evenodd;fill:url(#SVGID_84_);}
	.st113{fill-rule:evenodd;clip-rule:evenodd;fill:url(#SVGID_85_);}
	.st114{fill-rule:evenodd;clip-rule:evenodd;fill:url(#SVGID_86_);}
	.st115{fill-rule:evenodd;clip-rule:evenodd;fill:url(#SVGID_87_);}
	.st116{fill-rule:evenodd;clip-rule:evenodd;fill:url(#SVGID_88_);}
	.st117{fill-rule:evenodd;clip-rule:evenodd;fill:url(#SVGID_89_);}
	.st118{fill-rule:evenodd;clip-rule:evenodd;fill:url(#SVGID_90_);}
	.st119{fill-rule:evenodd;clip-rule:evenodd;fill:url(#SVGID_91_);}
	.st120{fill-rule:evenodd;clip-rule:evenodd;fill:url(#SVGID_92_);}
	.st121{fill:#CEFF00;}
	.st122{fill:none;stroke:#CEFF00;stroke-miterlimit:10;}
</style>
<g>
	<g>
		<defs>
			<rect id="SVGID_3_" x="-918.29" y="-17.42" width="756.4" height="840.33"/>
		</defs>
		<clipPath id="SVGID_2_">
			<use xlink:href="#SVGID_3_"  style="overflow:visible;"/>
		</clipPath>
	</g>
</g>
<g>
	<path class="st7" d="M277.84,69.75c9.41,4.31,14.19,12,17.74,21.54c13.92,37.42,28.47,74.61,42.73,111.91
		c7.47,19.53,10.3,39.75,8.9,60.62c-0.89,13.3-1.24,26.64-2.12,39.94c-0.27,4.06,0.63,6.71,4.31,8.92
		c7.86,4.72,15.42,9.93,23.23,15.02c7.39-6.89,15.4-10.94,25.36-8.47c8.92,2.21,15.13,7.78,17.76,16.55
		c2.89,9.61,0.6,18.32-6.75,25.28c-14.44,13.66-29.03,27.16-43.57,40.72c-11.35,10.58-22.67,21.19-34.08,31.71
		c-10.97,10.12-23.19,11.49-33.52,3.89c-10.3-7.58-12.46-19.65-5.94-33.12c0.2-0.41,0.19-0.91,0.21-1.03
		c-7.04-6.52-14.55-12.37-20.63-19.45c-5.93-6.9-10.39-15.06-16.11-23.6c-7.26,17.63-19.65,31.39-35.46,41.96
		c1.41,4.39,3.29,8.38,3.92,12.55c1.55,10.25-3.82,20.01-12.95,24.72c-9.42,4.85-19.9,3.51-28.24-4.17
		c-19.08-17.57-37.99-35.33-56.97-53.01c-6.74-6.28-13.51-12.53-20.22-18.84c-12.2-11.47-13.78-25.83-4.09-36.62
		c9.63-10.71,23.54-10.92,36.24-0.53c0.37,0.3,0.8,0.54,1.96,1.32c8.35-5.43,17.14-10.88,25.56-16.85c1.41-1,1.76-4.27,1.68-6.46
		c-0.47-13.08-1.03-26.16-1.91-39.22c-1.4-20.59,0.96-40.61,8.2-60c3.98-10.65,7.83-21.36,11.77-32.03
		c1.64-4.45,4.76-7.09,9.52-5.42c5.12,1.79,5.82,5.85,4.02,10.69c-3.72,9.98-7.15,20.07-11.01,29.99
		c-7.26,18.67-9.32,37.95-7.9,57.82c1.04,14.5,1.33,29.06,2.27,43.57c0.36,5.51-1.53,9.1-6.23,11.97
		c-8.25,5.04-16.21,10.54-25.25,16.48c19.47,18.17,38.47,35.91,57.9,54.04c20.39-12.22,33.44-29.22,37.76-52.54
		c3.42-18.43,1.67-36.84-1.78-54.93c-4.36-22.86-1.59-45.37,0.91-68c0.96-8.67,1.76-17.36,2.63-26.04c0.42-4.21-0.3-8.69-5.07-8.81
		c-2.69-0.07-7.01,2.81-7.96,5.35c-6.75,18.12-12.82,36.49-19.08,54.79c-0.55,1.6-0.38,3.91-1.44,4.76
		c-2.53,2.03-6.02,5.08-8.35,4.52c-2.27-0.54-5.34-5.31-5-7.79c1.02-7.37,3.15-14.67,5.57-21.74c4.62-13.5,7.62-28.17,15.09-39.94
		c16.89-26.57,16.58-57.6,25.5-86.14c1.45-4.64,0.01-9.67-5.6-10.99c-5.39-1.27-7.72,2.82-9.37,7.13
		c-2.86,7.46-5.66,14.94-8.55,22.38c-1.76,4.54-4.66,7.78-9.93,5.75c-5.23-2.01-5.36-6.38-3.66-10.94
		c3.06-8.16,6.4-16.21,9.34-24.41c2.67-7.43,8.63-11.28,15.03-14.8c3.88,0,7.76,0,11.64,0c3.36,2.13,6.72,4.27,10.18,6.46
		c3.46-2.2,6.82-4.33,10.19-6.46C270.08,69.75,273.96,69.75,277.84,69.75z M361.82,338.07c-8.54-5.58-16.03-10.95-23.98-15.52
		c-6.1-3.51-8.07-8.05-7.54-14.92c1.1-14.25,1.4-28.56,2.29-42.84c1.07-17.1,0.24-34.01-5.83-50.16
		c-15.48-41.22-31.28-82.33-46.98-123.47c-1.69-4.42-4.42-8.07-9.73-6.37c-5.06,1.62-6.37,6.38-4.99,10.76
		c9.02,28.51,8.44,59.62,25.51,86.13c7.29,11.32,10.22,25.5,14.73,38.52c2.45,7.07,4.19,14.4,5.99,21.68
		c1.1,4.43,0.27,8.48-4.87,9.75c-4.95,1.22-7.78-1.52-9.12-6.06c-0.41-1.39-0.55-2.87-1.02-4.24
		c-6.09-17.84-11.98-35.76-18.59-53.42c-1.05-2.79-5.43-6.15-8.19-6.09c-5.21,0.12-5.56,5-5.1,9.42c0.88,8.43,1.77,16.87,2.53,25.31
		c1.78,19.74,5.08,39.3,2.29,59.36c-2.46,17.69-4.48,35.67-4.14,53.47c0.49,25.65,13.06,45.67,34.4,59.89
		c1.71,1.14,5.82,1.2,7.17-0.03C324.93,372.63,342.93,355.7,361.82,338.07z M403.71,342.34c-2.62-3.02-4.52-7.23-7.18-7.79
		c-3.64-0.76-9.06-0.06-11.64,2.29c-26.31,23.95-52.23,48.32-78.18,72.67c-5.1,4.79-5.54,10.39-1.69,14.72
		c4.11,4.61,9.87,4.65,15.32-0.4c25.91-24.03,51.78-48.1,77.51-72.32C400.15,349.34,401.38,346.05,403.71,342.34z M200.26,429.11
		c3.09-2.77,7.48-4.84,8.07-7.7c0.74-3.55-0.4-9.08-2.91-11.48c-25.69-24.62-51.78-48.82-77.85-73.03
		c-5.43-5.05-11.29-4.98-15.34-0.43c-4.01,4.52-3.39,10.14,2.14,15.31c25.63,23.98,51.31,47.9,77.07,71.73
		C193.63,425.56,196.55,426.8,200.26,429.11z M256.85,125.66c-0.56-0.01-1.12-0.01-1.68-0.02c-3.18,13.59-6.36,27.18-9.34,39.89
		c7.22,7.76,13.79,6.14,20.47,0.27C263.17,152.51,260.01,139.08,256.85,125.66z"/>
	<path class="st7" d="M212.17,145.44c-2.86,1.84-5.84,5.27-8.54,5.05c-2.48-0.2-4.63-4.33-6.93-6.73c2.52-2.38,4.79-6.15,7.66-6.69
		c2.19-0.41,5.15,3.28,7.76,5.14C212.14,143.29,212.16,144.36,212.17,145.44z"/>
</g>
</svg>
