<?xml version="1.0" encoding="utf-8"?>
<!-- Generator: Adobe Illustrator 23.0.4, SVG Export Plug-In . SVG Version: 6.00 Build 0)  -->
<svg version="1.1" id="Capa_1" xmlns="http://www.w3.org/2000/svg" xmlns:xlink="http://www.w3.org/1999/xlink" x="0px" y="0px"
	 viewBox="0 0 512 512" style="enable-background:new 0 0 512 512;" xml:space="preserve">
<style type="text/css">
	.st0{opacity:0.4;}
	.st1{fill:#216CA7;}
	.st2{fill:#E8E8E8;}
	.st3{fill-rule:evenodd;clip-rule:evenodd;fill:#216CA7;}
	.st4{fill-rule:evenodd;clip-rule:evenodd;fill:#3996C8;}
	.st5{fill-rule:evenodd;clip-rule:evenodd;fill:#3F3F3F;}
	.st6{fill-rule:evenodd;clip-rule:evenodd;fill:#FFDA44;}
	.st7{fill-rule:evenodd;clip-rule:evenodd;fill:#E8E8E8;}
	.st8{fill:#3F3F3F;}
	.st9{fill:#FFFFFF;}
	.st10{fill:#F0F0F0;}
	.st11{fill:#D80027;}
	.st12{fill:#0052B4;}
	.st13{fill:#FFDA44;}
	.st14{fill:#A0A0A0;}
	.st15{fill:none;stroke:#3F3F3F;stroke-width:0.5;stroke-miterlimit:10;}
	.st16{clip-path:url(#SVGID_8_);}
	.st17{fill:none;stroke:#FA3D39;stroke-width:10;stroke-miterlimit:10;}
	.st18{fill:#FA3D39;}
	.st19{filter:url(#Adobe_OpacityMaskFilter);}
	.st20{opacity:0.6;fill:url(#SVGID_10_);}
	.st21{mask:url(#SVGID_9_);}
	.st22{fill:none;stroke:#FFFFFF;stroke-width:4;stroke-miterlimit:10;}
	.st23{fill-rule:evenodd;clip-rule:evenodd;fill:#ADADAC;}
	.st24{fill-rule:evenodd;clip-rule:evenodd;fill:#426A8F;}
	.st25{fill-rule:evenodd;clip-rule:evenodd;}
	.st26{fill:#E5E5E6;}
	.st27{fill-rule:evenodd;clip-rule:evenodd;fill:#FFFFFF;}
	.st28{fill-rule:evenodd;clip-rule:evenodd;fill:#2D2B2A;}
	.st29{fill:#2D2B2A;}
	.st30{fill:#406D8D;}
	.st31{fill:#406C3C;}
	.st32{fill:#496977;}
	.st33{opacity:0.05;fill:#FFFFFF;}
	.st34{opacity:0.2;fill:#5D5D5D;}
	.st35{fill-rule:evenodd;clip-rule:evenodd;fill:url(#SVGID_15_);}
	.st36{fill-rule:evenodd;clip-rule:evenodd;fill:url(#SVGID_16_);}
	.st37{fill-rule:evenodd;clip-rule:evenodd;fill:url(#SVGID_17_);}
	.st38{fill-rule:evenodd;clip-rule:evenodd;fill:url(#SVGID_18_);}
	.st39{fill-rule:evenodd;clip-rule:evenodd;fill:url(#SVGID_19_);}
	.st40{fill-rule:evenodd;clip-rule:evenodd;fill:url(#SVGID_20_);}
	.st41{fill-rule:evenodd;clip-rule:evenodd;fill:url(#SVGID_21_);}
	.st42{fill-rule:evenodd;clip-rule:evenodd;fill:url(#SVGID_22_);}
	.st43{fill:#222220;}
	.st44{fill-rule:evenodd;clip-rule:evenodd;fill:#406D8D;}
	.st45{fill:#84828A;}
	.st46{fill:#A13628;}
	.st47{fill-rule:evenodd;clip-rule:evenodd;fill:#998041;}
	.st48{fill-rule:evenodd;clip-rule:evenodd;fill:#7A6041;}
	.st49{fill-rule:evenodd;clip-rule:evenodd;fill:#806A3F;}
	.st50{fill-rule:evenodd;clip-rule:evenodd;fill:#807942;}
	.st51{fill-rule:evenodd;clip-rule:evenodd;fill:#8A7F5C;}
	.st52{fill:#C79832;}
	.st53{fill:#D0AE4A;}
	.st54{fill:#D5BC80;}
	.st55{fill:#8A7F5C;}
	.st56{fill:#C0927C;}
	.st57{fill:#53804C;}
	.st58{fill:#BEC092;}
	.st59{fill:#BDA8B6;}
	.st60{fill:#7A6041;}
	.st61{fill:#806A3F;}
	.st62{fill:#604B36;}
	.st63{fill:#ADADAD;}
	.st64{fill:#838382;}
	.st65{fill:none;stroke:#FFFFFF;stroke-miterlimit:10;}
	.st66{fill:#3E3E3D;}
	.st67{fill:none;stroke:#FFFFFF;stroke-width:0.1;stroke-miterlimit:10;}
	.st68{fill:#575756;}
	.st69{fill:#000105;}
	.st70{fill:#588080;}
	.st71{fill-rule:evenodd;clip-rule:evenodd;fill:#8FB73B;}
	.st72{fill:none;stroke:#3F3F3F;stroke-miterlimit:10;}
	.st73{fill-rule:evenodd;clip-rule:evenodd;fill:url(#SVGID_35_);}
	.st74{fill-rule:evenodd;clip-rule:evenodd;fill:url(#SVGID_36_);}
	.st75{fill-rule:evenodd;clip-rule:evenodd;fill:url(#SVGID_37_);}
	.st76{fill-rule:evenodd;clip-rule:evenodd;fill:url(#SVGID_38_);}
	.st77{fill-rule:evenodd;clip-rule:evenodd;fill:url(#SVGID_39_);}
	.st78{fill-rule:evenodd;clip-rule:evenodd;fill:url(#SVGID_40_);}
	.st79{fill-rule:evenodd;clip-rule:evenodd;fill:url(#SVGID_41_);}
	.st80{fill-rule:evenodd;clip-rule:evenodd;fill:url(#SVGID_42_);}
	.st81{fill:#F8F9FA;}
	.st82{filter:url(#Adobe_OpacityMaskFilter_1_);}
	.st83{opacity:0.6;fill:url(#SVGID_52_);}
	.st84{mask:url(#SVGID_51_);}
	.st85{filter:url(#Adobe_OpacityMaskFilter_2_);}
	.st86{opacity:0.6;fill:url(#SVGID_56_);}
	.st87{mask:url(#SVGID_55_);}
	.st88{filter:url(#Adobe_OpacityMaskFilter_3_);}
	.st89{opacity:0.6;fill:url(#SVGID_60_);}
	.st90{mask:url(#SVGID_59_);}
	.st91{filter:url(#Adobe_OpacityMaskFilter_4_);}
	.st92{opacity:0.6;fill:url(#SVGID_64_);}
	.st93{mask:url(#SVGID_63_);}
	.st94{filter:url(#Adobe_OpacityMaskFilter_5_);}
	.st95{opacity:0.6;fill:url(#SVGID_68_);}
	.st96{mask:url(#SVGID_67_);}
	.st97{fill:#717272;}
	.st98{fill:none;stroke:#FFFFFF;stroke-width:3;stroke-miterlimit:10;}
	.st99{fill-rule:evenodd;clip-rule:evenodd;fill:url(#SVGID_69_);}
	.st100{fill-rule:evenodd;clip-rule:evenodd;fill:url(#SVGID_70_);}
	.st101{fill-rule:evenodd;clip-rule:evenodd;fill:url(#SVGID_71_);}
	.st102{fill-rule:evenodd;clip-rule:evenodd;fill:url(#SVGID_72_);}
	.st103{fill-rule:evenodd;clip-rule:evenodd;fill:url(#SVGID_73_);}
	.st104{fill-rule:evenodd;clip-rule:evenodd;fill:url(#SVGID_74_);}
	.st105{fill-rule:evenodd;clip-rule:evenodd;fill:url(#SVGID_75_);}
	.st106{fill-rule:evenodd;clip-rule:evenodd;fill:url(#SVGID_76_);}
	.st107{fill-rule:evenodd;clip-rule:evenodd;fill:url(#SVGID_77_);}
	.st108{fill-rule:evenodd;clip-rule:evenodd;fill:url(#SVGID_78_);}
	.st109{fill-rule:evenodd;clip-rule:evenodd;fill:url(#SVGID_79_);}
	.st110{fill-rule:evenodd;clip-rule:evenodd;fill:url(#SVGID_80_);}
	.st111{fill-rule:evenodd;clip-rule:evenodd;fill:url(#SVGID_81_);}
	.st112{fill-rule:evenodd;clip-rule:evenodd;fill:url(#SVGID_82_);}
	.st113{fill-rule:evenodd;clip-rule:evenodd;fill:url(#SVGID_83_);}
	.st114{fill-rule:evenodd;clip-rule:evenodd;fill:url(#SVGID_84_);}
	.st115{fill-rule:evenodd;clip-rule:evenodd;fill:url(#SVGID_85_);}
	.st116{fill-rule:evenodd;clip-rule:evenodd;fill:url(#SVGID_86_);}
	.st117{fill-rule:evenodd;clip-rule:evenodd;fill:url(#SVGID_87_);}
	.st118{fill-rule:evenodd;clip-rule:evenodd;fill:url(#SVGID_88_);}
	.st119{fill-rule:evenodd;clip-rule:evenodd;fill:url(#SVGID_89_);}
	.st120{fill-rule:evenodd;clip-rule:evenodd;fill:url(#SVGID_90_);}
	.st121{fill-rule:evenodd;clip-rule:evenodd;fill:url(#SVGID_91_);}
	.st122{fill-rule:evenodd;clip-rule:evenodd;fill:url(#SVGID_92_);}
	.st123{fill:#CEFF00;}
	.st124{fill:none;stroke:#CEFF00;stroke-miterlimit:10;}
	.st125{filter:url(#Adobe_OpacityMaskFilter_6_);}
	.st126{opacity:0.6;fill:url(#SVGID_96_);}
	.st127{mask:url(#SVGID_95_);}
	.st128{fill:#ffffff;}
	.st129{fill:#45A521;}
	.st130{fill:#A32121;}
</style>
<g>
	<path class="st128" d="M186.04,498.08c-1.66-0.45-3.33-0.88-4.98-1.36c-15.16-4.4-23.3-19.47-19-35.47
		c13.73-51.04,27.54-102.05,41.24-153.09c1.17-4.36,1.71-8.9,2.66-14.01c-13.97,3.83-27.03-0.19-40.19-1.44
		c-14.73-1.4-25.43-13.97-25.22-28.76c0.04-2.66,0.35-5.35,0.79-7.98c1.12-6.69,1.85-12.36-5.11-17.58
		c-6.95-5.21-8.66-14.01-7.57-22.79c2.37-19.06,4.91-38.1,7.26-57.16c2.1-17.05,16.24-28,33.3-25.79
		c12.8,1.65,25.62,3.24,38.46,4.55c9.39,0.96,17.34,4.34,24.27,13.61c0.89-1.73,1.28-3.26,2.24-4.22
		c13.81-13.98,34.03-18.05,51.82-10.55c17.66,7.45,29.72,24.54,28.38,43.91c-0.77,11.18,2.99,18.16,10.87,25.34
		c17.35,15.8,33.99,32.39,50.6,48.98c13.75,13.73,8.51,36.44-9.57,42.77c-8.68,3.04-16.78,1.62-24.19-3.66
		c-9.24-6.58-18.39-13.27-27.58-19.91c-1.26-0.91-2.55-1.76-4.63-3.19c-0.58,9.03-0.81,17.43-1.74,25.74
		c-1.07,9.58,1.43,17.59,6.96,25.62c10.96,15.94,20.88,32.6,31.29,48.93c6.25,9.81,5.87,21.06,6.97,31.95
		c2.16,21.31,3.93,42.65,6.11,63.96c1.6,15.59-5.09,26.19-20,30.88c-0.43,0.13-0.78,0.49-1.17,0.74c-3.15,0-6.3,0-9.46,0
		c-11.35-3.53-19.08-10.33-21.38-22.58c-3.49-18.54-7.11-37.05-10.98-55.51c-1.54-7.32-2.24-15.61-6.23-21.47
		c-8.74-12.82-19.34-24.37-29.2-36.43c-0.14-0.17-0.57-0.1-0.97-0.15c-0.47,1.14-0.96,2.3-1.41,3.47
		c-13.52,35.37-27.32,70.64-40.41,106.17c-4.9,13.29-12.04,23.32-26.54,26.49C189.82,498.08,187.93,498.08,186.04,498.08z
		 M294.39,282.05c0.01,0,0.02,0,0.03,0c0.44-8.02,0.96-16.04,1.3-24.07c0.15-3.53,0.85-7.23,4.39-8.08
		c2.65-0.64,5.84,0.75,8.74,1.43c0.85,0.2,1.55,1.05,2.31,1.6c13.15,9.5,26.28,19.02,39.46,28.48c4.25,3.05,8.79,3.32,13.26,0.52
		c3.97-2.49,6.06-7.34,4.52-11.93c-0.9-2.68-2.82-5.27-4.88-7.28c-19.8-19.41-39.67-38.75-59.69-57.94
		c-3.39-3.25-4.65-6.61-4.48-11.24c0.27-7.51,1.01-15.29-0.55-22.5c-3.3-15.31-17.34-24.69-33.54-23.85
		c-15.03,0.78-27.47,12.49-29.67,28.76c-4.1,30.26-7.75,60.59-11.75,90.87c-2.06,15.59-3.09,31.48-6.94,46.64
		c-11.75,46.18-24.64,92.07-37.09,138.08c-1.31,4.86-2.76,9.69-3.91,14.59c-1.63,6.99,1.56,13.34,7.78,15.94
		c5.92,2.48,12.47,0.25,16.32-5.74c1.18-1.83,2.06-3.9,2.84-5.94c5.49-14.4,10.84-28.86,16.38-43.24
		c10.17-26.42,20.33-52.85,30.7-79.19c4.14-10.5,9.58-11.22,16.61-2.6c11.16,13.67,22.59,27.13,33.25,41.18
		c3.77,4.97,6.01,11.25,8.23,17.19c1.58,4.22,1.96,8.89,2.85,13.37c3.76,18.82,7.49,37.65,11.28,56.47
		c1.34,6.67,6.43,10.37,12.95,9.6c6.08-0.71,10.01-5.56,9.92-12.27c-0.02-1.42-0.09-2.84-0.23-4.25
		c-2.26-23.83-4.71-47.64-6.72-71.49c-0.73-8.57-3.26-16.13-8.02-23.3c-10.27-15.48-20.06-31.27-30.23-46.81
		c-4.45-6.81-7-14.07-6.65-22.22C293.47,295.88,293.98,288.97,294.39,282.05z M221.41,170.93c0.32-11.48-3.82-17.5-11.87-18.61
		c-14.35-1.98-28.74-3.69-43.15-5.09c-8.83-0.86-14.49,3.71-15.73,12.64c-2.62,18.87-4.99,37.77-7.19,56.69
		c-0.98,8.38,1.59,12.41,9.34,16.03c3.77,1.76,5.54,4.46,5.03,8.62c-0.8,6.56-1.52,13.14-2.38,19.69
		c-1.28,9.72,3.56,16.26,13.27,17.52c8.12,1.05,16.26,1.98,24.4,2.79c7.06,0.7,13.04-3.44,14.98-10.33
		c0.76-2.71,1.16-5.54,1.53-8.35c2.11-16.08,4.17-32.16,6.23-48.25C217.84,198.98,219.79,183.68,221.41,170.93z"/>
	<path class="st128" d="M220.7,81.27c-6.28,1.11-12.01,2.15-17.74,3.13c-4.81,0.82-8.59-1.5-9.35-5.66
		c-0.78-4.31,1.69-7.69,6.53-8.78c2.15-0.48,4.33-0.77,6.5-1.16c2.15-0.38,4.29-0.78,6.59-1.2c2.31-16.25,9.42-29.71,22.01-40.09
		c30.97-25.55,78.68-13.57,93.93,23.5c1.79,4.36,1.54,7.8-2.37,10.87c-0.9,0.7-1.38,2.62-1.23,3.87
		c3.55,28.64-15.1,54.48-43.09,59.56c-27.52,4.99-53.96-12.51-60.66-40.12C221.54,83.96,221.14,82.79,220.7,81.27z M310.4,65.45
		c-25.05,4.42-49.87,8.8-74.65,13.17c2.64,20.88,22.72,35.71,43.05,32.39C300.47,107.48,314.46,87.78,310.4,65.45z M228.8,64.93
		c27.97-4.94,55.43-9.79,83.12-14.67c-8.37-15.27-27.46-23.89-45.77-21.15C247.99,31.82,232.87,46.08,228.8,64.93z"/>
</g>
</svg>
