<?xml version="1.0" encoding="utf-8"?>
<!-- Generator: Adobe Illustrator 23.0.4, SVG Export Plug-In . SVG Version: 6.00 Build 0)  -->
<svg version="1.1" id="Capa_1" xmlns="http://www.w3.org/2000/svg" xmlns:xlink="http://www.w3.org/1999/xlink" x="0px" y="0px"
	 viewBox="0 0 512 512" style="enable-background:new 0 0 512 512;" xml:space="preserve">
<style type="text/css">
	.st0{opacity:0.4;}
	.st1{fill:#216CA7;}
	.st2{fill:#E8E8E8;}
	.st3{fill-rule:evenodd;clip-rule:evenodd;fill:#216CA7;}
	.st4{fill-rule:evenodd;clip-rule:evenodd;fill:#3996C8;}
	.st5{fill-rule:evenodd;clip-rule:evenodd;fill:#3F3F3F;}
	.st6{fill-rule:evenodd;clip-rule:evenodd;fill:#FFDA44;}
	.st7{fill-rule:evenodd;clip-rule:evenodd;fill:#E8E8E8;}
	.st8{fill:#3F3F3F;}
	.st9{fill:#FFFFFF;}
	.st10{fill:#F0F0F0;}
	.st11{fill:#D80027;}
	.st12{fill:#0052B4;}
	.st13{fill:#FFDA44;}
	.st14{fill:#A0A0A0;}
	.st15{fill:none;stroke:#3F3F3F;stroke-width:0.5;stroke-miterlimit:10;}
	.st16{clip-path:url(#SVGID_8_);}
	.st17{fill:none;stroke:#FA3D39;stroke-width:10;stroke-miterlimit:10;}
	.st18{fill:#FA3D39;}
	.st19{filter:url(#Adobe_OpacityMaskFilter);}
	.st20{opacity:0.6;fill:url(#SVGID_10_);}
	.st21{mask:url(#SVGID_9_);}
	.st22{fill:none;stroke:#FFFFFF;stroke-width:4;stroke-miterlimit:10;}
	.st23{fill-rule:evenodd;clip-rule:evenodd;fill:#ADADAC;}
	.st24{fill-rule:evenodd;clip-rule:evenodd;fill:#426A8F;}
	.st25{fill-rule:evenodd;clip-rule:evenodd;}
	.st26{fill:#E5E5E6;}
	.st27{fill-rule:evenodd;clip-rule:evenodd;fill:#FFFFFF;}
	.st28{fill-rule:evenodd;clip-rule:evenodd;fill:#2D2B2A;}
	.st29{fill:#2D2B2A;}
	.st30{fill:#406D8D;}
	.st31{fill:#406C3C;}
	.st32{fill:#496977;}
	.st33{opacity:0.05;fill:#FFFFFF;}
	.st34{opacity:0.2;fill:#5D5D5D;}
	.st35{fill-rule:evenodd;clip-rule:evenodd;fill:url(#SVGID_15_);}
	.st36{fill-rule:evenodd;clip-rule:evenodd;fill:url(#SVGID_16_);}
	.st37{fill-rule:evenodd;clip-rule:evenodd;fill:url(#SVGID_17_);}
	.st38{fill-rule:evenodd;clip-rule:evenodd;fill:url(#SVGID_18_);}
	.st39{fill-rule:evenodd;clip-rule:evenodd;fill:url(#SVGID_19_);}
	.st40{fill-rule:evenodd;clip-rule:evenodd;fill:url(#SVGID_20_);}
	.st41{fill-rule:evenodd;clip-rule:evenodd;fill:url(#SVGID_21_);}
	.st42{fill-rule:evenodd;clip-rule:evenodd;fill:url(#SVGID_22_);}
	.st43{fill:#222220;}
	.st44{fill-rule:evenodd;clip-rule:evenodd;fill:#406D8D;}
	.st45{fill:#84828A;}
	.st46{fill:#A13628;}
	.st47{fill-rule:evenodd;clip-rule:evenodd;fill:#998041;}
	.st48{fill-rule:evenodd;clip-rule:evenodd;fill:#7A6041;}
	.st49{fill-rule:evenodd;clip-rule:evenodd;fill:#806A3F;}
	.st50{fill-rule:evenodd;clip-rule:evenodd;fill:#807942;}
	.st51{fill-rule:evenodd;clip-rule:evenodd;fill:#8A7F5C;}
	.st52{fill:#C79832;}
	.st53{fill:#D0AE4A;}
	.st54{fill:#D5BC80;}
	.st55{fill:#8A7F5C;}
	.st56{fill:#C0927C;}
	.st57{fill:#53804C;}
	.st58{fill:#BEC092;}
	.st59{fill:#BDA8B6;}
	.st60{fill:#7A6041;}
	.st61{fill:#806A3F;}
	.st62{fill:#604B36;}
	.st63{fill:#ADADAD;}
	.st64{fill:#838382;}
	.st65{fill:none;stroke:#FFFFFF;stroke-miterlimit:10;}
	.st66{fill:#3E3E3D;}
	.st67{fill:none;stroke:#FFFFFF;stroke-width:0.1;stroke-miterlimit:10;}
	.st68{fill:#575756;}
	.st69{fill:#000105;}
	.st70{fill:#588080;}
	.st71{fill-rule:evenodd;clip-rule:evenodd;fill:#8FB73B;}
	.st72{fill:none;stroke:#3F3F3F;stroke-miterlimit:10;}
	.st73{fill-rule:evenodd;clip-rule:evenodd;fill:url(#SVGID_35_);}
	.st74{fill-rule:evenodd;clip-rule:evenodd;fill:url(#SVGID_36_);}
	.st75{fill-rule:evenodd;clip-rule:evenodd;fill:url(#SVGID_37_);}
	.st76{fill-rule:evenodd;clip-rule:evenodd;fill:url(#SVGID_38_);}
	.st77{fill-rule:evenodd;clip-rule:evenodd;fill:url(#SVGID_39_);}
	.st78{fill-rule:evenodd;clip-rule:evenodd;fill:url(#SVGID_40_);}
	.st79{fill-rule:evenodd;clip-rule:evenodd;fill:url(#SVGID_41_);}
	.st80{fill-rule:evenodd;clip-rule:evenodd;fill:url(#SVGID_42_);}
	.st81{fill:#F8F9FA;}
	.st82{filter:url(#Adobe_OpacityMaskFilter_1_);}
	.st83{opacity:0.6;fill:url(#SVGID_52_);}
	.st84{mask:url(#SVGID_51_);}
	.st85{filter:url(#Adobe_OpacityMaskFilter_2_);}
	.st86{opacity:0.6;fill:url(#SVGID_56_);}
	.st87{mask:url(#SVGID_55_);}
	.st88{filter:url(#Adobe_OpacityMaskFilter_3_);}
	.st89{opacity:0.6;fill:url(#SVGID_60_);}
	.st90{mask:url(#SVGID_59_);}
	.st91{filter:url(#Adobe_OpacityMaskFilter_4_);}
	.st92{opacity:0.6;fill:url(#SVGID_64_);}
	.st93{mask:url(#SVGID_63_);}
	.st94{filter:url(#Adobe_OpacityMaskFilter_5_);}
	.st95{opacity:0.6;fill:url(#SVGID_68_);}
	.st96{mask:url(#SVGID_67_);}
	.st97{fill:#717272;}
	.st98{fill:none;stroke:#FFFFFF;stroke-width:3;stroke-miterlimit:10;}
	.st99{fill-rule:evenodd;clip-rule:evenodd;fill:url(#SVGID_69_);}
	.st100{fill-rule:evenodd;clip-rule:evenodd;fill:url(#SVGID_70_);}
	.st101{fill-rule:evenodd;clip-rule:evenodd;fill:url(#SVGID_71_);}
	.st102{fill-rule:evenodd;clip-rule:evenodd;fill:url(#SVGID_72_);}
	.st103{fill-rule:evenodd;clip-rule:evenodd;fill:url(#SVGID_73_);}
	.st104{fill-rule:evenodd;clip-rule:evenodd;fill:url(#SVGID_74_);}
	.st105{fill-rule:evenodd;clip-rule:evenodd;fill:url(#SVGID_75_);}
	.st106{fill-rule:evenodd;clip-rule:evenodd;fill:url(#SVGID_76_);}
	.st107{fill-rule:evenodd;clip-rule:evenodd;fill:url(#SVGID_77_);}
	.st108{fill-rule:evenodd;clip-rule:evenodd;fill:url(#SVGID_78_);}
	.st109{fill-rule:evenodd;clip-rule:evenodd;fill:url(#SVGID_79_);}
	.st110{fill-rule:evenodd;clip-rule:evenodd;fill:url(#SVGID_80_);}
	.st111{fill-rule:evenodd;clip-rule:evenodd;fill:url(#SVGID_81_);}
	.st112{fill-rule:evenodd;clip-rule:evenodd;fill:url(#SVGID_82_);}
	.st113{fill-rule:evenodd;clip-rule:evenodd;fill:url(#SVGID_83_);}
	.st114{fill-rule:evenodd;clip-rule:evenodd;fill:url(#SVGID_84_);}
	.st115{fill-rule:evenodd;clip-rule:evenodd;fill:url(#SVGID_85_);}
	.st116{fill-rule:evenodd;clip-rule:evenodd;fill:url(#SVGID_86_);}
	.st117{fill-rule:evenodd;clip-rule:evenodd;fill:url(#SVGID_87_);}
	.st118{fill-rule:evenodd;clip-rule:evenodd;fill:url(#SVGID_88_);}
	.st119{fill-rule:evenodd;clip-rule:evenodd;fill:url(#SVGID_89_);}
	.st120{fill-rule:evenodd;clip-rule:evenodd;fill:url(#SVGID_90_);}
	.st121{fill-rule:evenodd;clip-rule:evenodd;fill:url(#SVGID_91_);}
	.st122{fill-rule:evenodd;clip-rule:evenodd;fill:url(#SVGID_92_);}
	.st123{fill:#CEFF00;}
	.st124{fill:none;stroke:#CEFF00;stroke-miterlimit:10;}
	.st125{filter:url(#Adobe_OpacityMaskFilter_6_);}
	.st126{opacity:0.6;fill:url(#SVGID_96_);}
	.st127{mask:url(#SVGID_95_);}
	.st128{fill:#45A521;}
	.st129{fill:#A32121;}
</style>
<path class="st129" d="M146,477.77c-11.38-3.29-16.54-11.11-18.02-22.67c-5.03-39.19-10.5-78.33-15.83-117.49
	c-5.05-37.01-10.16-74.01-15.21-111.02c-5.05-37.01-10.05-74.03-15.08-111.04c-0.1-0.71-0.24-1.43-0.28-2.15
	c-0.41-7.33-2.9-12.93-8.72-18.4c-14.29-13.43-13.57-36.25,0.29-50.13c13.99-14.01,36.55-14.22,50.71-0.46
	c14.15,13.75,14.8,35.88,1.27,50.26c-2.14,2.27-2.78,4.33-2.29,7.28c1.08,6.5,1.9,13.04,2.92,20.21c1.96-1.03,3.43-1.79,4.89-2.58
	c22.89-12.41,46.52-23,72.01-28.86c31.57-7.26,62.48-4.83,92.6,7.05c10.59,4.17,21.31,8.16,31.43,13.3
	c15.02,7.64,30.11,7.38,45.83,3.2c17.36-4.62,32.62-13.7,48.33-21.86c3.32-1.72,6.7-3.39,10.2-4.69c8.2-3.04,17.19,2.61,18.19,11.3
	c0.2,1.71,0.16,3.46,0.16,5.19c0.01,55.29-0.14,110.58,0.16,165.86c0.05,8.53-3.13,13.8-10.4,17.63
	c-22.03,11.59-44.52,21.65-69.38,25.76c-21.01,3.47-40.34-1.37-59.12-10.17c-9.65-4.52-19.16-9.4-29.07-13.27
	c-25.09-9.79-50.56-8.38-76.08-1.55c-17.75,4.75-34.65,11.71-51.21,19.59c-2.28,1.09-3.03,2.19-2.65,4.91
	c6.51,46.85,12.9,93.72,19.25,140.6c1.37,10.08-4.41,19.37-13.94,22.92c-1.06,0.4-2.11,0.84-3.16,1.26
	C151.2,477.77,148.6,477.77,146,477.77z"/>
</svg>
