<?xml version="1.0" standalone="no"?>
<!DOCTYPE svg PUBLIC "-//W3C//DTD SVG 20010904//EN"
 "http://www.w3.org/TR/2001/REC-SVG-20010904/DTD/svg10.dtd">
<svg version="1.0" xmlns="http://www.w3.org/2000/svg"
 width="849.000000pt" height="270.000000pt" viewBox="0 0 849.000000 270.000000"
 preserveAspectRatio="xMidYMid meet">

<g transform="translate(0.000000,270.000000) scale(0.100000,-0.100000)"
fill="#000000" stroke="none">
<path d="M5720 1360 c0 -1023 0 -1030 20 -1030 20 0 20 7 20 1030 0 1023 0
1030 -20 1030 -20 0 -20 -7 -20 -1030z"/>
<path d="M6740 2179 c-193 -23 -357 -106 -496 -251 -156 -162 -228 -347 -226
-578 1 -130 25 -231 86 -355 82 -165 209 -292 371 -370 117 -57 186 -74 320
-82 364 -20 697 205 816 550 100 291 32 608 -179 830 -186 195 -431 286 -692
256z m70 -53 c20 -25 8 -61 -21 -64 -23 -3 -27 1 -32 30 -2 18 -3 36 0 41 7
12 40 8 53 -7z m73 7 c-13 -2 -23 -9 -23 -14 0 -5 10 -10 23 -10 l22 -2 -22
-4 c-13 -2 -23 -11 -23 -18 0 -7 10 -16 23 -18 19 -4 18 -4 -5 -6 -26 -1 -28
2 -28 39 0 37 2 40 28 39 23 -2 24 -2 5 -6z m-191 -38 c8 -19 8 -28 -2 -40
-23 -28 -70 -12 -70 25 0 42 54 54 72 15z m343 15 c4 -6 -5 -7 -23 -4 -24 5
-30 2 -35 -15 -3 -11 1 -25 9 -31 15 -13 38 -4 29 11 -4 5 -1 9 4 9 16 0 13
-30 -3 -36 -38 -14 -72 36 -44 64 14 14 54 16 63 2z m-430 -60 l5 -35 -14 35
c-18 42 -20 58 -6 44 5 -5 12 -25 15 -44z m461 9 c-8 -19 -15 -29 -15 -22 -1
18 19 67 25 61 3 -3 -2 -21 -10 -39z m79 17 c18 -13 18 -16 3 -46 -15 -30 -16
-31 -23 -11 -7 23 -21 28 -28 9 -2 -7 -6 -11 -9 -8 -7 7 20 70 30 70 5 0 17
-6 27 -14z m-588 -11 c3 -9 -1 -23 -9 -33 -9 -9 -13 -24 -10 -32 8 -24 -13 2
-26 32 -9 23 -9 29 6 37 24 14 32 13 39 -4z m-62 -57 l16 -33 -21 24 c-11 13
-20 27 -20 32 0 18 10 8 25 -23z m731 1 c-3 -17 -6 -39 -7 -48 0 -11 -3 -9 -9
7 -6 13 -18 22 -32 22 -22 1 -22 2 7 25 40 33 49 31 41 -6z m-798 0 c-22 -13
-23 -32 -2 -50 14 -11 18 -10 31 6 15 20 15 20 11 0 -4 -24 -33 -32 -53 -15
-18 15 -20 56 -2 63 22 9 32 7 15 -4z m545 -15 c315 -71 522 -345 504 -668 -6
-125 -34 -214 -97 -310 -190 -291 -546 -383 -855 -222 -93 48 -213 173 -263
273 -102 207 -95 431 20 627 139 237 424 360 691 300z m333 -15 c18 -20 18
-22 1 -34 -9 -6 -17 -21 -18 -31 0 -10 -5 -4 -11 15 -7 25 -12 31 -21 22 -23
-23 -28 -10 -5 18 28 36 30 36 54 10z m-896 -62 c0 -13 -29 12 -42 37 -10 19
-8 18 16 -3 14 -14 26 -29 26 -34z m-30 -20 c0 -5 -13 -7 -30 -5 -35 5 -36 2
-13 -26 10 -12 3 -8 -15 8 -17 17 -32 32 -32 34 0 3 16 2 36 -1 34 -6 35 -5
20 12 -26 28 -19 37 9 11 14 -13 25 -28 25 -33z m994 24 c9 -10 14 -25 10 -35
-9 -24 -52 -32 -72 -13 -15 15 -14 19 8 42 28 30 32 30 54 6z m-1064 -75 c10
-13 10 -19 0 -31 -18 -21 -44 -19 -66 7 l-19 22 27 -17 c51 -32 66 -13 26 31
-22 23 -22 24 -2 14 11 -6 26 -18 34 -26z m1124 11 c36 -26 -4 -84 -41 -61
-24 15 -27 38 -8 58 20 19 26 20 49 3z m-1194 -72 c17 -9 30 -18 30 -21 0 -2
-9 0 -21 6 -26 14 -35 7 -14 -10 24 -20 18 -31 -12 -24 -27 6 -27 6 -8 -9 11
-9 16 -16 10 -16 -17 -1 -60 37 -52 46 5 4 11 3 15 -3 4 -6 15 -8 25 -5 17 6
17 8 3 20 -16 13 -22 31 -11 31 4 0 19 -7 35 -15z m1260 -19 c14 -18 13 -19
-3 -13 -10 4 -28 0 -43 -9 -13 -9 -24 -12 -24 -7 0 5 11 15 25 21 14 6 25 17
25 23 0 7 1 10 3 8 1 -2 9 -13 17 -23z m30 -64 c0 -5 -14 -21 -31 -38 -26 -24
-30 -25 -25 -9 6 23 -2 39 -24 48 -8 3 6 6 33 6 26 1 47 -3 47 -7z m-476
-1059 c4 -19 4 -33 -2 -33 -10 0 -32 87 -23 95 6 7 15 -16 25 -62z m-416 6 l3
-44 -21 23 c-17 18 -25 21 -36 11 -24 -19 -17 11 8 38 30 32 42 24 46 -28z
m488 20 c27 -30 28 -32 6 -26 -13 3 -28 -1 -36 -9 -20 -20 -26 -18 -26 10 0
29 9 56 19 56 4 0 20 -14 37 -31z m-448 -16 c-2 -28 1 -38 17 -44 17 -7 16 -8
-7 -8 -35 -1 -39 8 -27 52 13 47 21 47 17 0z m342 -24 c0 -22 -6 -30 -25 -35
-31 -8 -31 -8 -39 38 -6 33 -4 37 16 40 32 5 48 -9 48 -43z m-230 27 c10 -13
7 -15 -17 -13 -22 2 -28 -2 -28 -18 0 -15 6 -19 23 -18 13 2 21 -1 17 -7 -11
-18 -53 -11 -60 10 -14 44 36 80 65 46z m75 -33 c8 -20 12 -39 9 -42 -4 -3 -9
0 -11 7 -3 6 -13 12 -23 12 -10 0 -20 -6 -23 -12 -2 -7 -7 -10 -11 -7 -9 8 22
79 34 79 5 0 17 -16 25 -37z m45 -5 c0 -12 8 -18 23 -18 18 0 19 -2 7 -10 -34
-22 -50 -12 -50 33 0 31 3 38 10 27 5 -8 10 -23 10 -32z"/>
<path d="M6770 2100 c0 -25 4 -31 18 -28 11 2 17 12 17 28 0 16 -6 26 -17 28
-14 3 -18 -3 -18 -28z"/>
<path d="M6641 2096 c-15 -18 -3 -46 20 -46 13 0 19 7 19 24 0 28 -24 41 -39
22z"/>
<path d="M7110 2061 c0 -11 26 -22 34 -14 3 3 3 10 0 14 -7 12 -34 11 -34 0z"/>
<path d="M6526 2063 c-11 -11 -6 -23 9 -23 8 0 15 4 15 9 0 13 -16 22 -24 14z"/>
<path d="M7195 2011 c-3 -5 -1 -12 5 -16 5 -3 10 1 10 9 0 18 -6 21 -15 7z"/>
<path d="M6808 1956 c-14 -19 -15 -33 -8 -86 12 -87 -14 -138 -49 -96 -10 11
-8 17 6 25 17 10 17 10 1 11 -27 0 -22 30 5 31 18 1 16 3 -8 9 -16 5 -40 12
-52 15 -38 12 -29 -31 17 -76 28 -28 48 -39 70 -39 25 0 30 -4 30 -25 0 -14
-4 -25 -10 -25 -5 0 -10 -8 -10 -18 0 -64 -157 -111 -293 -89 l-48 8 3 -249 3
-249 35 -45 c19 -24 60 -66 90 -93 54 -48 195 -145 211 -145 4 0 9 -15 11 -32
2 -28 7 -33 28 -33 21 0 26 5 28 30 2 25 13 37 60 66 129 81 249 192 272 254
16 41 13 495 -2 495 -10 0 -12 -33 -10 -140 l3 -140 -175 0 -176 0 0 180 0
179 28 -26 c62 -58 186 -94 262 -74 29 7 21 9 -50 10 -114 2 -210 44 -210 93
0 16 9 18 92 18 88 0 90 -1 75 -18 -10 -10 -17 -33 -17 -50 0 -37 4 -37 143
-26 66 6 77 10 77 25 0 14 7 19 25 19 16 0 23 -4 19 -13 -3 -8 3 -20 13 -28
16 -13 17 -12 4 4 -11 14 -11 20 -1 32 11 13 -3 15 -114 15 -105 0 -126 2
-126 15 0 18 17 20 23 3 7 -23 37 12 37 44 l0 30 -77 -5 c-43 -3 -104 -6 -137
-6 -54 0 -58 -1 -53 -20 3 -12 1 -21 -4 -21 -5 0 -9 11 -9 25 0 22 4 25 33 25
42 0 107 62 107 102 0 25 -1 26 -36 15 -20 -6 -31 -13 -25 -15 18 -6 13 -40
-6 -45 -16 -4 -16 -5 0 -6 21 -1 18 -20 -5 -35 -20 -12 -43 9 -50 47 -5 24 -2
27 21 28 23 2 24 2 4 6 -25 5 -28 18 -14 57 8 19 6 30 -10 50 -25 32 -29 32
-51 2z m-168 -457 c0 -5 -4 -9 -8 -9 -5 0 -9 7 -9 15 0 8 4 12 9 9 4 -3 8 -9
8 -15z m70 -20 c0 -4 -7 -9 -15 -13 -9 -3 -12 -12 -9 -23 5 -17 5 -17 -9 0 -8
9 -18 17 -22 17 -5 0 -1 -8 8 -17 8 -10 17 -29 20 -43 4 -25 4 -25 6 2 0 15
12 40 25 55 l25 28 30 -33 c30 -32 41 -72 21 -72 -6 0 -15 11 -20 25 -5 14
-15 25 -21 25 -9 0 -9 -3 0 -14 6 -7 9 -21 5 -30 -5 -12 0 -16 21 -16 20 0 26
-4 23 -17 -4 -21 -86 -39 -102 -23 -7 7 -2 10 12 10 15 0 22 6 22 20 0 24 -15
26 -28 4 -12 -22 -90 -38 -109 -23 -23 20 -12 54 20 57 15 2 25 8 22 13 -4 5
-1 9 4 9 6 0 11 -9 11 -20 0 -11 5 -20 10 -20 17 0 11 36 -10 55 -20 18 -20
18 7 35 29 17 53 22 53 9z"/>
<path d="M6550 1724 c0 -37 27 -56 55 -38 11 7 51 14 90 16 55 2 70 6 73 19 3
19 -51 29 -154 29 -62 0 -64 -1 -64 -26z"/>
<path d="M6622 1679 c4 -17 6 -16 -146 -18 -104 -1 -117 -3 -106 -16 10 -12
10 -18 -1 -32 -13 -15 -12 -15 8 -3 16 11 19 17 11 27 -8 10 -5 13 11 13 14 0
21 -6 21 -20 0 -18 6 -21 38 -19 20 0 72 -2 115 -7 l77 -7 0 35 c0 20 -7 41
-16 48 -12 11 -15 11 -12 -1z"/>
<path d="M6888 1533 c7 -3 16 -2 19 1 4 3 -2 6 -13 5 -11 0 -14 -3 -6 -6z"/>
<path d="M6910 1510 c0 -5 5 -10 10 -10 6 0 10 5 10 10 0 6 -4 10 -10 10 -5 0
-10 -4 -10 -10z"/>
<path d="M6880 1456 c0 -2 9 -6 20 -9 11 -3 20 -1 20 4 0 5 -9 9 -20 9 -11 0
-20 -2 -20 -4z"/>
<path d="M6930 1440 c0 -6 28 -10 65 -10 37 0 65 4 65 10 0 6 -28 10 -65 10
-37 0 -65 -4 -65 -10z"/>
<path d="M7120 1442 c0 -6 14 -15 30 -21 17 -5 30 -6 30 -2 0 5 -8 11 -17 15
-10 3 -24 9 -30 12 -7 3 -13 1 -13 -4z"/>
<path d="M6968 1393 c18 -2 45 -2 60 0 15 2 0 4 -33 4 -33 0 -45 -2 -27 -4z"/>
<path d="M7120 1390 c0 -5 7 -7 15 -4 8 4 15 8 15 10 0 2 -7 4 -15 4 -8 0 -15
-4 -15 -10z"/>
<path d="M6940 1360 c0 -5 5 -10 10 -10 6 0 10 5 10 10 0 6 -4 10 -10 10 -5 0
-10 -4 -10 -10z"/>
<path d="M6990 1360 c0 -5 9 -10 20 -10 11 0 20 5 20 10 0 6 -9 10 -20 10 -11
0 -20 -4 -20 -10z"/>
<path d="M7277 1983 c-4 -3 -7 -10 -7 -14 0 -11 29 -19 35 -10 6 11 -20 33
-28 24z"/>
<path d="M7335 1910 c-14 -15 -16 -23 -7 -32 15 -15 42 -2 42 21 0 29 -15 33
-35 11z"/>
<path d="M7395 1847 c-18 -14 -11 -47 9 -47 15 0 36 21 36 36 0 18 -26 24 -45
11z"/>
<path d="M7480 1690 c0 -5 4 -10 9 -10 6 0 13 5 16 10 3 6 -1 10 -9 10 -9 0
-16 -4 -16 -10z"/>
<path d="M6611 664 c0 -11 3 -14 6 -6 3 7 2 16 -1 19 -3 4 -6 -2 -5 -13z"/>
<path d="M6970 648 c0 -7 5 -20 10 -28 12 -20 33 0 24 23 -7 20 -34 23 -34 5z"/>
<path d="M3710 2140 c-134 -24 -210 -96 -210 -200 0 -110 61 -164 278 -245 45
-17 79 -36 88 -51 58 -88 -119 -115 -270 -40 -41 20 -77 36 -80 36 -4 0 -6
-33 -4 -72 l3 -73 50 -24 c103 -49 259 -60 359 -24 164 57 200 255 64 350 -22
14 -91 47 -155 73 -72 28 -121 54 -130 67 -14 20 -13 24 11 48 36 36 116 35
236 -4 l90 -29 0 69 c0 67 -1 70 -27 80 -94 36 -228 53 -303 39z"/>
<path d="M4223 2138 c-11 -15 -53 -125 -53 -139 0 -5 12 -9 28 -9 21 0 39 15
85 70 31 38 57 74 57 80 0 15 -105 13 -117 -2z"/>
<path d="M5078 1915 c-113 -107 -210 -195 -214 -195 -4 0 -38 29 -75 65 -37
36 -72 65 -77 65 -6 0 -38 -25 -72 -57 l-61 -56 48 -49 c26 -27 91 -89 143
-138 l96 -88 69 67 c39 36 151 142 250 235 99 93 193 181 208 196 l29 27 -62
59 c-34 32 -65 60 -68 61 -4 2 -100 -85 -214 -192z"/>
<path d="M2136 2015 c-81 -29 -127 -82 -147 -169 -24 -110 25 -217 125 -268
54 -28 153 -30 218 -5 145 56 186 263 77 382 -64 70 -177 94 -273 60z m153
-129 c12 -13 24 -39 28 -59 20 -123 -72 -203 -148 -128 -25 26 -29 37 -29 86
0 56 19 109 42 118 35 14 85 6 107 -17z"/>
<path d="M1088 1797 c-49 -123 -88 -226 -88 -230 0 -4 33 -7 74 -7 l74 0 12
35 12 35 74 0 75 0 15 -35 14 -35 70 0 c38 0 71 3 73 8 2 4 -35 106 -82 227
l-87 220 -74 3 -75 3 -87 -224z m184 -12 l15 -55 -39 0 c-30 0 -39 3 -35 14 3
8 11 32 18 55 7 23 15 41 19 41 4 0 14 -25 22 -55z"/>
<path d="M1520 1790 l0 -231 73 3 72 3 3 88 3 87 64 0 64 0 3 -87 3 -88 73 -3
72 -3 0 231 0 231 -72 -3 -73 -3 -3 -77 -3 -78 -64 0 -65 0 0 80 0 80 -75 0
-75 0 0 -230z"/>
<path d="M2502 1793 l3 -228 73 -3 72 -3 0 81 0 80 48 0 c26 0 52 -4 59 -8 16
-10 33 -57 33 -92 0 -55 6 -60 82 -60 l71 0 -7 64 c-8 81 -23 124 -48 137 -18
10 -18 12 12 45 43 49 42 109 -1 158 -41 48 -78 56 -252 56 l-147 0 2 -227z
m272 101 c37 -37 -1 -74 -76 -74 l-48 0 0 45 0 45 54 0 c36 0 60 -5 70 -16z"/>
<path d="M3140 1998 c-5 -13 -45 -114 -89 -226 -57 -146 -76 -205 -67 -208 7
-3 42 -4 77 -2 62 3 64 4 73 36 l9 32 78 0 77 0 12 -35 12 -35 74 0 c41 0 74
3 74 7 0 4 -39 108 -87 230 l-87 223 -73 0 c-67 0 -74 -2 -83 -22z m114 -240
c6 -27 5 -28 -33 -28 l-40 0 21 62 21 62 12 -34 c7 -19 15 -47 19 -62z"/>
<path d="M4165 1947 c-3 -7 -4 -125 -3 -262 l3 -250 93 -3 92 -3 0 266 0 265
-90 0 c-64 0 -92 -4 -95 -13z"/>
<path d="M4401 1888 c0 -40 6 -111 13 -158 l11 -85 47 -3 c38 -2 47 0 51 15
11 39 29 220 26 258 l-4 40 -72 3 -73 3 1 -73z"/>
<path d="M860 1905 c0 -35 0 -35 45 -35 45 0 45 0 45 35 0 35 0 35 -45 35 -45
0 -45 0 -45 -35z"/>
<path d="M857 1818 c-12 -50 -28 -215 -25 -253 l3 -40 73 -3 72 -3 -1 73 c0
40 -6 111 -12 158 l-12 85 -46 3 c-42 3 -47 0 -52 -20z"/>
<path d="M4430 1575 c0 -35 0 -35 45 -35 45 0 45 0 45 35 0 35 0 35 -45 35
-45 0 -45 0 -45 -35z"/>
<path d="M1000 1475 l0 -55 1240 0 1240 0 0 55 0 55 -1240 0 -1240 0 0 -55z"/>
<path d="M770 950 l0 -370 2355 0 2355 0 0 370 0 370 -2355 0 -2355 0 0 -370z
m349 140 c18 -5 45 -17 58 -26 l25 -16 -27 -28 c-25 -26 -28 -27 -56 -13 -35
18 -85 9 -99 -17 -17 -32 -12 -95 9 -114 25 -23 94 -19 99 7 3 14 -4 17 -32
17 -34 0 -36 2 -36 35 l0 35 75 0 76 0 -3 -72 c-3 -70 -4 -73 -37 -95 -40 -27
-126 -31 -169 -9 -126 66 -108 256 28 294 47 13 50 14 89 2z m205 -22 c17 -28
-4 -53 -45 -53 -30 0 -34 3 -37 29 -2 16 2 33 10 38 20 13 60 5 72 -14z m924
-130 l-3 -153 -29 -3 c-16 -2 -33 1 -38 6 -6 6 -20 6 -37 -1 -35 -13 -76 -2
-107 28 -36 36 -34 113 4 156 25 28 35 32 75 32 l47 -1 0 37 c0 47 4 51 52 51
l39 0 -3 -152z m2597 -3 l0 -150 -37 -3 c-22 -2 -38 1 -38 7 0 7 -9 7 -27 0
-91 -34 -169 59 -129 154 19 47 73 74 117 58 l29 -10 0 50 0 50 43 -3 42 -3 0
-150z m-2197 93 c2 -20 9 -28 23 -28 15 0 19 -7 19 -35 0 -28 -4 -35 -20 -35
-17 0 -20 -7 -20 -41 0 -35 2 -40 19 -34 15 5 21 0 26 -26 8 -37 -4 -49 -53
-49 -51 0 -82 37 -82 100 0 38 -4 50 -15 50 -10 0 -15 11 -15 35 0 24 5 35 15
35 9 0 15 9 15 24 0 18 7 26 23 29 46 9 62 3 65 -25z m1632 3 c0 -23 5 -30 23
-33 17 -2 22 -10 22 -33 0 -24 -5 -31 -23 -33 -20 -3 -23 -8 -20 -40 2 -29 7
-37 22 -37 29 0 41 -52 16 -65 -24 -13 -66 -13 -90 0 -22 12 -40 60 -40 106 0
24 -5 34 -15 34 -10 0 -15 11 -15 35 0 24 5 35 15 35 8 0 15 9 15 20 0 22 29
38 68 39 18 1 22 -4 22 -28z m-2743 -43 c10 -8 10 -16 -1 -36 -10 -20 -22 -26
-47 -26 l-34 -1 -5 -70 -5 -70 -40 0 -40 0 -3 108 -3 108 56 -2 c30 -1 58 1
62 5 8 7 42 -2 60 -16z m201 11 l53 2 -3 -108 -3 -108 -29 -3 c-16 -2 -33 1
-38 6 -5 5 -23 5 -46 -1 -104 -28 -172 105 -96 184 28 30 57 39 89 31 11 -3
44 -5 73 -3z m247 -1 c29 -13 29 -14 11 -47 -10 -19 -22 -25 -47 -25 l-34 -1
-5 -70 -5 -70 -40 0 -40 0 0 105 0 105 52 0 c29 1 55 4 59 8 10 10 19 9 49 -5z
m447 2 c47 -13 88 -61 88 -103 0 -106 -139 -156 -215 -77 -54 56 -29 151 46
177 43 15 37 15 81 3z m473 -4 l50 -1 0 -105 0 -105 -34 -3 c-19 -2 -37 2 -41
8 -6 9 -13 9 -30 0 -54 -29 -128 17 -137 87 -10 74 53 142 117 126 14 -3 48
-6 75 -7z m400 -26 c15 -16 20 -34 20 -76 0 -50 -3 -59 -33 -85 -33 -30 -69
-37 -103 -19 -18 10 -19 7 -19 -40 l0 -50 -40 0 -40 0 0 150 0 150 60 -2 c33
-1 62 1 66 4 10 10 67 -11 89 -32z m233 29 l53 2 -3 -108 -3 -108 -29 -3 c-16
-2 -33 1 -38 6 -5 5 -24 5 -47 -1 -105 -28 -171 114 -88 191 26 23 54 32 82
24 11 -3 44 -5 73 -3z m267 -10 c6 -6 4 -19 -6 -37 -12 -21 -21 -26 -43 -24
-38 5 -46 -10 -46 -85 l0 -63 -40 0 -40 0 0 111 0 112 44 -5 c24 -3 50 -1 58
3 15 10 58 3 73 -12z m192 10 l53 2 0 -111 0 -110 -34 0 c-19 0 -38 5 -41 10
-4 7 -12 7 -25 0 -42 -23 -103 -2 -126 41 -19 37 -18 99 2 128 21 29 72 52 99
44 11 -3 44 -5 72 -4z m510 1 c24 0 72 -52 78 -84 19 -99 -84 -166 -182 -119
-65 30 -81 124 -29 172 27 26 72 42 101 36 11 -3 25 -5 32 -5z m556 -12 c29
-15 50 -56 50 -99 0 -33 -7 -47 -32 -72 -27 -28 -38 -32 -85 -32 -67 0 -107
26 -120 77 -16 65 7 111 69 133 39 14 83 12 118 -7z m240 0 c17 -9 17 -12 4
-31 -12 -17 -24 -22 -53 -20 l-39 2 48 -15 c106 -33 78 -144 -36 -144 -80 0
-115 31 -84 74 11 15 17 16 35 7 11 -6 31 -11 44 -10 14 0 6 6 -23 15 -36 11
-49 21 -59 45 -11 27 -11 33 7 57 11 15 31 30 44 34 27 8 85 1 112 -14z
m-3978 -98 l0 -105 -40 0 -40 0 -3 108 -3 108 43 -3 43 -3 0 -105z"/>
<path d="M2094 904 c-8 -32 15 -59 44 -50 43 14 33 76 -13 76 -18 0 -26 -7
-31 -26z"/>
<path d="M4697 924 c-13 -13 -7 -51 9 -65 23 -19 49 1 49 37 0 24 -5 30 -25
32 -14 2 -29 0 -33 -4z"/>
<path d="M1637 924 c-13 -13 -7 -51 9 -65 23 -19 49 1 49 37 0 24 -5 30 -25
32 -14 2 -29 0 -33 -4z"/>
<path d="M2367 924 c-12 -12 -8 -51 8 -64 8 -6 23 -9 35 -5 17 5 20 13 18 38
-2 26 -8 33 -28 35 -14 2 -29 0 -33 -4z"/>
<path d="M2807 924 c-4 -4 -7 -20 -7 -35 0 -19 6 -30 20 -34 28 -9 52 13 48
44 -2 19 -9 27 -28 29 -14 2 -29 0 -33 -4z"/>
<path d="M3174 905 c-8 -34 15 -60 45 -50 18 5 22 13 19 38 -2 26 -8 33 -30
35 -22 3 -29 -2 -34 -23z"/>
<path d="M3437 924 c-12 -12 -8 -51 8 -64 8 -6 23 -9 35 -5 17 5 20 13 18 38
-2 26 -8 33 -28 35 -14 2 -29 0 -33 -4z"/>
<path d="M3895 911 c-11 -36 17 -67 49 -55 40 15 28 74 -14 74 -19 0 -31 -6
-35 -19z"/>
<path d="M4437 924 c-13 -13 -7 -51 9 -65 23 -19 49 1 49 37 0 24 -5 30 -25
32 -14 2 -29 0 -33 -4z"/>
<path d="M4962 914 c-13 -23 -4 -52 20 -59 26 -9 50 13 46 44 -2 20 -9 27 -30
29 -17 2 -30 -3 -36 -14z"/>
</g>
</svg>
