<?xml version="1.0" encoding="utf-8"?>
<!-- Generator: Adobe Illustrator 23.0.4, SVG Export Plug-In . SVG Version: 6.00 Build 0)  -->
<svg version="1.1" id="Capa_1" xmlns="http://www.w3.org/2000/svg" xmlns:xlink="http://www.w3.org/1999/xlink" x="0px" y="0px"
	 viewBox="0 0 512 512" style="enable-background:new 0 0 512 512;" xml:space="preserve">
<style type="text/css">
	.st0{opacity:0.4;}
	.st1{fill:#216CA7;}
	.st2{fill:#E8E8E8;}
	.st3{fill-rule:evenodd;clip-rule:evenodd;fill:#216CA7;}
	.st4{fill-rule:evenodd;clip-rule:evenodd;fill:#3996C8;}
	.st5{fill-rule:evenodd;clip-rule:evenodd;fill:#3F3F3F;}
	.st6{fill:#3F3F3F;}
	.st7{fill:#FFFFFF;}
	.st8{fill:#F0F0F0;}
	.st9{fill:#D80027;}
	.st10{fill:#0052B4;}
	.st11{fill:#FFDA44;}
	.st12{fill:#A0A0A0;}
	.st13{fill:none;stroke:#3F3F3F;stroke-width:0.5;stroke-miterlimit:10;}
	.st14{clip-path:url(#SVGID_8_);}
	.st15{fill:none;stroke:#FA3D39;stroke-width:10;stroke-miterlimit:10;}
	.st16{fill:#FA3D39;}
	.st17{filter:url(#Adobe_OpacityMaskFilter);}
	.st18{opacity:0.6;fill:url(#SVGID_10_);}
	.st19{mask:url(#SVGID_9_);}
	.st20{fill:none;stroke:#FFFFFF;stroke-width:4;stroke-miterlimit:10;}
	.st21{fill-rule:evenodd;clip-rule:evenodd;fill:#ADADAC;}
	.st22{fill-rule:evenodd;clip-rule:evenodd;fill:#426A8F;}
	.st23{fill-rule:evenodd;clip-rule:evenodd;}
	.st24{fill:#E5E5E6;}
	.st25{fill-rule:evenodd;clip-rule:evenodd;fill:#FFFFFF;}
	.st26{fill-rule:evenodd;clip-rule:evenodd;fill:#2D2B2A;}
	.st27{fill:#2D2B2A;}
	.st28{fill:#406D8D;}
	.st29{fill:#406C3C;}
	.st30{fill:#496977;}
	.st31{opacity:0.05;fill:#FFFFFF;}
	.st32{opacity:0.2;fill:#5D5D5D;}
	.st33{fill-rule:evenodd;clip-rule:evenodd;fill:url(#SVGID_15_);}
	.st34{fill-rule:evenodd;clip-rule:evenodd;fill:url(#SVGID_16_);}
	.st35{fill-rule:evenodd;clip-rule:evenodd;fill:url(#SVGID_17_);}
	.st36{fill-rule:evenodd;clip-rule:evenodd;fill:url(#SVGID_18_);}
	.st37{fill-rule:evenodd;clip-rule:evenodd;fill:url(#SVGID_19_);}
	.st38{fill-rule:evenodd;clip-rule:evenodd;fill:url(#SVGID_20_);}
	.st39{fill-rule:evenodd;clip-rule:evenodd;fill:url(#SVGID_21_);}
	.st40{fill-rule:evenodd;clip-rule:evenodd;fill:url(#SVGID_22_);}
	.st41{fill:#222220;}
	.st42{fill-rule:evenodd;clip-rule:evenodd;fill:#406D8D;}
	.st43{fill:#84828A;}
	.st44{fill:#A13628;}
	.st45{fill-rule:evenodd;clip-rule:evenodd;fill:#998041;}
	.st46{fill-rule:evenodd;clip-rule:evenodd;fill:#7A6041;}
	.st47{fill-rule:evenodd;clip-rule:evenodd;fill:#806A3F;}
	.st48{fill-rule:evenodd;clip-rule:evenodd;fill:#807942;}
	.st49{fill-rule:evenodd;clip-rule:evenodd;fill:#8A7F5C;}
	.st50{fill:#C79832;}
	.st51{fill:#D0AE4A;}
	.st52{fill:#D5BC80;}
	.st53{fill:#8A7F5C;}
	.st54{fill:#C0927C;}
	.st55{fill:#53804C;}
	.st56{fill:#BEC092;}
	.st57{fill:#BDA8B6;}
	.st58{fill:#7A6041;}
	.st59{fill:#806A3F;}
	.st60{fill:#604B36;}
	.st61{fill:#ADADAD;}
	.st62{fill:#838382;}
	.st63{fill:none;stroke:#FFFFFF;stroke-miterlimit:10;}
	.st64{fill:#3E3E3D;}
	.st65{fill:none;stroke:#FFFFFF;stroke-width:0.1;stroke-miterlimit:10;}
	.st66{fill:#575756;}
	.st67{fill:#000105;}
	.st68{fill:#588080;}
	.st69{fill-rule:evenodd;clip-rule:evenodd;fill:#8FB73B;}
	.st70{fill:none;stroke:#3F3F3F;stroke-miterlimit:10;}
	.st71{fill-rule:evenodd;clip-rule:evenodd;fill:url(#SVGID_35_);}
	.st72{fill-rule:evenodd;clip-rule:evenodd;fill:url(#SVGID_36_);}
	.st73{fill-rule:evenodd;clip-rule:evenodd;fill:url(#SVGID_37_);}
	.st74{fill-rule:evenodd;clip-rule:evenodd;fill:url(#SVGID_38_);}
	.st75{fill-rule:evenodd;clip-rule:evenodd;fill:url(#SVGID_39_);}
	.st76{fill-rule:evenodd;clip-rule:evenodd;fill:url(#SVGID_40_);}
	.st77{fill-rule:evenodd;clip-rule:evenodd;fill:url(#SVGID_41_);}
	.st78{fill-rule:evenodd;clip-rule:evenodd;fill:url(#SVGID_42_);}
	.st79{fill:#F8F9FA;}
	.st80{filter:url(#Adobe_OpacityMaskFilter_1_);}
	.st81{opacity:0.6;fill:url(#SVGID_52_);}
	.st82{mask:url(#SVGID_51_);}
	.st83{filter:url(#Adobe_OpacityMaskFilter_2_);}
	.st84{opacity:0.6;fill:url(#SVGID_56_);}
	.st85{mask:url(#SVGID_55_);}
	.st86{filter:url(#Adobe_OpacityMaskFilter_3_);}
	.st87{opacity:0.6;fill:url(#SVGID_60_);}
	.st88{mask:url(#SVGID_59_);}
	.st89{filter:url(#Adobe_OpacityMaskFilter_4_);}
	.st90{opacity:0.6;fill:url(#SVGID_64_);}
	.st91{mask:url(#SVGID_63_);}
	.st92{filter:url(#Adobe_OpacityMaskFilter_5_);}
	.st93{opacity:0.6;fill:url(#SVGID_68_);}
	.st94{mask:url(#SVGID_67_);}
	.st95{fill:#717272;}
	.st96{fill:none;stroke:#FFFFFF;stroke-width:3;stroke-miterlimit:10;}
	.st97{fill-rule:evenodd;clip-rule:evenodd;fill:url(#SVGID_69_);}
	.st98{fill-rule:evenodd;clip-rule:evenodd;fill:url(#SVGID_70_);}
	.st99{fill-rule:evenodd;clip-rule:evenodd;fill:url(#SVGID_71_);}
	.st100{fill-rule:evenodd;clip-rule:evenodd;fill:url(#SVGID_72_);}
	.st101{fill-rule:evenodd;clip-rule:evenodd;fill:url(#SVGID_73_);}
	.st102{fill-rule:evenodd;clip-rule:evenodd;fill:url(#SVGID_74_);}
	.st103{fill-rule:evenodd;clip-rule:evenodd;fill:url(#SVGID_75_);}
	.st104{fill-rule:evenodd;clip-rule:evenodd;fill:url(#SVGID_76_);}
	.st105{fill-rule:evenodd;clip-rule:evenodd;fill:url(#SVGID_77_);}
	.st106{fill-rule:evenodd;clip-rule:evenodd;fill:url(#SVGID_78_);}
	.st107{fill-rule:evenodd;clip-rule:evenodd;fill:url(#SVGID_79_);}
	.st108{fill-rule:evenodd;clip-rule:evenodd;fill:url(#SVGID_80_);}
	.st109{fill-rule:evenodd;clip-rule:evenodd;fill:url(#SVGID_81_);}
	.st110{fill-rule:evenodd;clip-rule:evenodd;fill:url(#SVGID_82_);}
	.st111{fill-rule:evenodd;clip-rule:evenodd;fill:url(#SVGID_83_);}
	.st112{fill-rule:evenodd;clip-rule:evenodd;fill:url(#SVGID_84_);}
	.st113{fill-rule:evenodd;clip-rule:evenodd;fill:url(#SVGID_85_);}
	.st114{fill-rule:evenodd;clip-rule:evenodd;fill:url(#SVGID_86_);}
	.st115{fill-rule:evenodd;clip-rule:evenodd;fill:url(#SVGID_87_);}
	.st116{fill-rule:evenodd;clip-rule:evenodd;fill:url(#SVGID_88_);}
	.st117{fill-rule:evenodd;clip-rule:evenodd;fill:url(#SVGID_89_);}
	.st118{fill-rule:evenodd;clip-rule:evenodd;fill:url(#SVGID_90_);}
	.st119{fill-rule:evenodd;clip-rule:evenodd;fill:url(#SVGID_91_);}
	.st120{fill-rule:evenodd;clip-rule:evenodd;fill:url(#SVGID_92_);}
	.st121{fill:#CEFF00;}
	.st122{fill:none;stroke:#CEFF00;stroke-miterlimit:10;}
</style>
<g>
	<g>
		<defs>
			<rect id="SVGID_3_" x="-918.29" y="-17.42" width="756.4" height="840.33"/>
		</defs>
		<clipPath id="SVGID_2_">
			<use xlink:href="#SVGID_3_"  style="overflow:visible;"/>
		</clipPath>
	</g>
</g>
<g>
	<path class="st7" d="M266.99,442.69c-7.29,0-14.59,0-21.88,0c-1.06-0.21-2.12-0.46-3.18-0.63c-10.18-1.58-20.54-2.43-30.53-4.82
		C115.55,414.28,53.81,317.99,72.56,221.05c7.8-40.3,26.62-74.65,56.93-102.25c43.25-39.38,94.36-55.09,152.27-47.73
		c36.89,4.69,69.39,19.82,97.26,44.44c32.82,28.99,53.35,65.06,60.91,108.31c1.23,7.02,1.93,14.13,2.87,21.19
		c0,7.29,0,14.59,0,21.88c-0.22,1.29-0.5,2.57-0.67,3.86c-0.89,6.74-1.41,13.54-2.68,20.21c-7.07,37.2-24,69.33-50.61,96.2
		c-27.91,28.17-61.44,45.91-100.61,52.66C281.19,441.03,274.07,441.75,266.99,442.69z M380.58,363.24
		c51.91-57.51,59.36-160.32-12.39-228.03C299.84,70.71,188.89,77.9,129,151.04c-60.18,73.5-40.2,166.8,2.7,212.04
		c5.36-20.43,14.91-38.51,28.99-54.1c14.13-15.64,31.21-27.08,51.18-34.69c-43.42-31.21-42.43-86.9-14.34-117.61
		c29.13-31.86,78.24-35.11,109.89-6.96c17.14,15.24,26.61,34.33,27.05,57.24c0.55,28.07-11.42,50.28-34.11,67.13
		C341.72,290.86,368.29,320.42,380.58,363.24z M258.99,420.82c3.78-0.31,10.58-0.66,17.33-1.46c31.32-3.75,59.1-15.9,83.58-35.68
		c0.88-0.71,1.55-2.43,1.39-3.55c-8.32-59.5-63.89-100.25-122.88-90.19c-45.69,7.79-80.72,43.77-87.54,90.05
		c-0.18,1.2,0.55,3.07,1.5,3.83C182.59,408.14,217.2,420.31,258.99,420.82z M255.87,265.74c31.02,0.23,56.49-24.96,56.93-56.3
		c0.43-30.83-25.07-56.71-56.21-57.06c-31.19-0.35-56.83,24.87-57.29,56.34C198.84,239.71,224.43,265.5,255.87,265.74z"/>
</g>
</svg>
