<?xml version="1.0" encoding="utf-8"?>
<!-- Generator: Adobe Illustrator 23.0.4, SVG Export Plug-In . SVG Version: 6.00 Build 0)  -->
<svg version="1.1" id="Capa_1" xmlns="http://www.w3.org/2000/svg" xmlns:xlink="http://www.w3.org/1999/xlink" x="0px" y="0px"
	 viewBox="0 0 512 512" style="enable-background:new 0 0 512 512;" xml:space="preserve">
<style type="text/css">
	.st0{opacity:0.4;}
	.st1{fill:#216CA7;}
	.st2{fill:#E8E8E8;}
	.st3{fill-rule:evenodd;clip-rule:evenodd;fill:#216CA7;}
	.st4{fill-rule:evenodd;clip-rule:evenodd;fill:#3996C8;}
	.st5{fill-rule:evenodd;clip-rule:evenodd;fill:#3F3F3F;}
	.st6{fill:#3F3F3F;}
	.st7{fill:#FFFFFF;}
	.st8{fill:#F0F0F0;}
	.st9{fill:#D80027;}
	.st10{fill:#0052B4;}
	.st11{fill:#FFDA44;}
	.st12{fill:#A0A0A0;}
	.st13{fill:none;stroke:#3F3F3F;stroke-width:0.5;stroke-miterlimit:10;}
	.st14{clip-path:url(#SVGID_8_);}
	.st15{fill:none;stroke:#FA3D39;stroke-width:10;stroke-miterlimit:10;}
	.st16{fill:#FA3D39;}
	.st17{filter:url(#Adobe_OpacityMaskFilter);}
	.st18{opacity:0.6;fill:url(#SVGID_10_);}
	.st19{mask:url(#SVGID_9_);}
	.st20{fill:none;stroke:#FFFFFF;stroke-width:4;stroke-miterlimit:10;}
	.st21{fill-rule:evenodd;clip-rule:evenodd;fill:#ADADAC;}
	.st22{fill-rule:evenodd;clip-rule:evenodd;fill:#426A8F;}
	.st23{fill-rule:evenodd;clip-rule:evenodd;}
	.st24{fill:#E5E5E6;}
	.st25{fill-rule:evenodd;clip-rule:evenodd;fill:#FFFFFF;}
	.st26{fill-rule:evenodd;clip-rule:evenodd;fill:#2D2B2A;}
	.st27{fill:#2D2B2A;}
	.st28{fill:#406D8D;}
	.st29{fill:#406C3C;}
	.st30{fill:#496977;}
	.st31{opacity:0.05;fill:#FFFFFF;}
	.st32{opacity:0.2;fill:#5D5D5D;}
	.st33{fill-rule:evenodd;clip-rule:evenodd;fill:url(#SVGID_15_);}
	.st34{fill-rule:evenodd;clip-rule:evenodd;fill:url(#SVGID_16_);}
	.st35{fill-rule:evenodd;clip-rule:evenodd;fill:url(#SVGID_17_);}
	.st36{fill-rule:evenodd;clip-rule:evenodd;fill:url(#SVGID_18_);}
	.st37{fill-rule:evenodd;clip-rule:evenodd;fill:url(#SVGID_19_);}
	.st38{fill-rule:evenodd;clip-rule:evenodd;fill:url(#SVGID_20_);}
	.st39{fill-rule:evenodd;clip-rule:evenodd;fill:url(#SVGID_21_);}
	.st40{fill-rule:evenodd;clip-rule:evenodd;fill:url(#SVGID_22_);}
	.st41{fill:#222220;}
	.st42{fill-rule:evenodd;clip-rule:evenodd;fill:#406D8D;}
	.st43{fill:#84828A;}
	.st44{fill:#A13628;}
	.st45{fill-rule:evenodd;clip-rule:evenodd;fill:#998041;}
	.st46{fill-rule:evenodd;clip-rule:evenodd;fill:#7A6041;}
	.st47{fill-rule:evenodd;clip-rule:evenodd;fill:#806A3F;}
	.st48{fill-rule:evenodd;clip-rule:evenodd;fill:#807942;}
	.st49{fill-rule:evenodd;clip-rule:evenodd;fill:#8A7F5C;}
	.st50{fill:#C79832;}
	.st51{fill:#D0AE4A;}
	.st52{fill:#D5BC80;}
	.st53{fill:#8A7F5C;}
	.st54{fill:#C0927C;}
	.st55{fill:#53804C;}
	.st56{fill:#BEC092;}
	.st57{fill:#BDA8B6;}
	.st58{fill:#7A6041;}
	.st59{fill:#806A3F;}
	.st60{fill:#604B36;}
	.st61{fill:#ADADAD;}
	.st62{fill:#838382;}
	.st63{fill:none;stroke:#FFFFFF;stroke-miterlimit:10;}
	.st64{fill:#3E3E3D;}
	.st65{fill:none;stroke:#FFFFFF;stroke-width:0.1;stroke-miterlimit:10;}
	.st66{fill:#575756;}
	.st67{fill:#000105;}
	.st68{fill:#588080;}
	.st69{fill-rule:evenodd;clip-rule:evenodd;fill:#8FB73B;}
	.st70{fill:none;stroke:#3F3F3F;stroke-miterlimit:10;}
	.st71{fill-rule:evenodd;clip-rule:evenodd;fill:url(#SVGID_35_);}
	.st72{fill-rule:evenodd;clip-rule:evenodd;fill:url(#SVGID_36_);}
	.st73{fill-rule:evenodd;clip-rule:evenodd;fill:url(#SVGID_37_);}
	.st74{fill-rule:evenodd;clip-rule:evenodd;fill:url(#SVGID_38_);}
	.st75{fill-rule:evenodd;clip-rule:evenodd;fill:url(#SVGID_39_);}
	.st76{fill-rule:evenodd;clip-rule:evenodd;fill:url(#SVGID_40_);}
	.st77{fill-rule:evenodd;clip-rule:evenodd;fill:url(#SVGID_41_);}
	.st78{fill-rule:evenodd;clip-rule:evenodd;fill:url(#SVGID_42_);}
	.st79{fill:#F8F9FA;}
	.st80{filter:url(#Adobe_OpacityMaskFilter_1_);}
	.st81{opacity:0.6;fill:url(#SVGID_52_);}
	.st82{mask:url(#SVGID_51_);}
	.st83{filter:url(#Adobe_OpacityMaskFilter_2_);}
	.st84{opacity:0.6;fill:url(#SVGID_56_);}
	.st85{mask:url(#SVGID_55_);}
	.st86{filter:url(#Adobe_OpacityMaskFilter_3_);}
	.st87{opacity:0.6;fill:url(#SVGID_60_);}
	.st88{mask:url(#SVGID_59_);}
	.st89{filter:url(#Adobe_OpacityMaskFilter_4_);}
	.st90{opacity:0.6;fill:url(#SVGID_64_);}
	.st91{mask:url(#SVGID_63_);}
	.st92{filter:url(#Adobe_OpacityMaskFilter_5_);}
	.st93{opacity:0.6;fill:url(#SVGID_68_);}
	.st94{mask:url(#SVGID_67_);}
	.st95{fill:#717272;}
	.st96{fill:none;stroke:#FFFFFF;stroke-width:3;stroke-miterlimit:10;}
	.st97{fill-rule:evenodd;clip-rule:evenodd;fill:url(#SVGID_69_);}
	.st98{fill-rule:evenodd;clip-rule:evenodd;fill:url(#SVGID_70_);}
	.st99{fill-rule:evenodd;clip-rule:evenodd;fill:url(#SVGID_71_);}
	.st100{fill-rule:evenodd;clip-rule:evenodd;fill:url(#SVGID_72_);}
	.st101{fill-rule:evenodd;clip-rule:evenodd;fill:url(#SVGID_73_);}
	.st102{fill-rule:evenodd;clip-rule:evenodd;fill:url(#SVGID_74_);}
	.st103{fill-rule:evenodd;clip-rule:evenodd;fill:url(#SVGID_75_);}
	.st104{fill-rule:evenodd;clip-rule:evenodd;fill:url(#SVGID_76_);}
	.st105{fill-rule:evenodd;clip-rule:evenodd;fill:url(#SVGID_77_);}
	.st106{fill-rule:evenodd;clip-rule:evenodd;fill:url(#SVGID_78_);}
	.st107{fill-rule:evenodd;clip-rule:evenodd;fill:url(#SVGID_79_);}
	.st108{fill-rule:evenodd;clip-rule:evenodd;fill:url(#SVGID_80_);}
	.st109{fill-rule:evenodd;clip-rule:evenodd;fill:url(#SVGID_81_);}
	.st110{fill-rule:evenodd;clip-rule:evenodd;fill:url(#SVGID_82_);}
	.st111{fill-rule:evenodd;clip-rule:evenodd;fill:url(#SVGID_83_);}
	.st112{fill-rule:evenodd;clip-rule:evenodd;fill:url(#SVGID_84_);}
	.st113{fill-rule:evenodd;clip-rule:evenodd;fill:url(#SVGID_85_);}
	.st114{fill-rule:evenodd;clip-rule:evenodd;fill:url(#SVGID_86_);}
	.st115{fill-rule:evenodd;clip-rule:evenodd;fill:url(#SVGID_87_);}
	.st116{fill-rule:evenodd;clip-rule:evenodd;fill:url(#SVGID_88_);}
	.st117{fill-rule:evenodd;clip-rule:evenodd;fill:url(#SVGID_89_);}
	.st118{fill-rule:evenodd;clip-rule:evenodd;fill:url(#SVGID_90_);}
	.st119{fill-rule:evenodd;clip-rule:evenodd;fill:url(#SVGID_91_);}
	.st120{fill-rule:evenodd;clip-rule:evenodd;fill:url(#SVGID_92_);}
	.st121{fill:#CEFF00;}
	.st122{fill:none;stroke:#CEFF00;stroke-miterlimit:10;}
</style>
<g>
	<g>
		<defs>
			<rect id="SVGID_3_" x="-918.29" y="-17.42" width="756.4" height="840.33"/>
		</defs>
		<clipPath id="SVGID_2_">
			<use xlink:href="#SVGID_3_"  style="overflow:visible;"/>
		</clipPath>
	</g>
</g>
<g>
	<g>
		<path class="st7" d="M467.69,137.98c-0.6,7.45-1.15,14.89-1.8,22.33c-2.46,28.21-6.88,56-18.98,81.94
			c-9.46,20.29-22.55,37.36-44.39,45.48c-30.35,11.28-60.32,9.76-89.48-4.26c-5.34-2.57-10.06-6.45-15.52-10.02
			c-0.85,1.33-1.96,3.01-3,4.73c-17.25,28.65-27.42,59.84-33.13,92.61c-3.69,21.18-5.63,42.54-5.45,64.05
			c0.04,5.03-0.96,9.39-4.47,13.05c-3.3,0-6.61,0-9.91,0c-3.97-2.74-5.13-6.64-5.13-11.3c0-35.32-2.29-70.48-8.41-105.31
			c-4.84-27.55-12.03-54.42-23.34-80.09c-0.96-2.18-2.01-4.33-2.72-5.85c-9.92,3.14-19.41,6.85-29.23,9.1
			c-17.98,4.12-36.05,3.4-53.9-1.39c-23.92-6.42-40.06-21.99-51.19-43.49c-10.26-19.83-16.25-41.08-18.62-63.06
			c-2.5-23.23-3.41-46.65-4.68-70c-0.5-9.17,3.16-12.43,12.41-12.38c32.62,0.18,65.1,1.88,96.9,9.97
			c15.32,3.9,29.93,9.53,43.56,17.72c23.2,13.95,35.34,34.8,38.82,61.13c2.54,19.22,0.94,38.13-6.26,56.19
			c-2.85,7.16-7.42,13.63-11,20.51c-0.69,1.32-1.12,3.45-0.54,4.67c14.93,31.41,23.85,64.6,29.58,98.75
			c0.16,0.94,0.46,1.86,0.95,3.8c2.95-8.93,5.38-16.88,8.21-24.7c6.81-18.83,15.6-36.69,26.89-53.26c1.58-2.31,1.39-3.98,0.36-6.47
			c-11.81-28.53-13-57.37-1.6-86.3c8.28-21,24.92-33.66,44.54-43c20.82-9.92,43.04-15.11,65.79-17.35
			c20.58-2.03,41.32-2.47,61.98-3.72c5.88-0.36,10.21,1.63,12.75,7.08C467.69,118.76,467.69,128.37,467.69,137.98z M308.64,257.65
			c5.56,3.57,10.34,7.52,15.8,10c18.92,8.58,38.71,9.82,58.97,5.81c17.84-3.53,31.59-12.98,40.33-28.85
			c4.82-8.74,9.13-17.93,12.29-27.38c8.54-25.55,10.88-52.15,11.87-78.9c0.2-5.48,0.03-10.98,0.03-16.53
			c-0.78-0.1-1.37-0.24-1.95-0.23c-22.99,0.16-45.88,1.64-68.51,5.88c-18.51,3.46-36.44,8.68-52.63,18.72
			c-11.67,7.24-20.81,16.61-25.46,29.85c-5.14,14.61-6.12,29.6-4.07,44.82c0.77,5.71,2.24,11.33,3.4,16.99
			c0.41,0.07,0.81,0.13,1.22,0.2c0.53-0.72,1.01-1.49,1.6-2.16c15.25-17.43,32.92-31.96,52.87-43.65
			c6.97-4.09,14.18-7.82,21.52-11.19c5.18-2.37,10.86,0.11,12.91,4.83c2.26,5.21,0.41,9.72-5.16,12.53c-1.34,0.67-2.7,1.3-4.05,1.96
			C352.17,213.91,328.65,232.34,308.64,257.65z M63.87,83.2c-0.16,1.44-0.29,2.02-0.28,2.6c0.42,23.13,1.71,46.19,6.05,68.97
			c3.56,18.66,8.94,36.67,19.08,53c8.93,14.39,21.47,23.6,38.01,27.3c14.11,3.16,28.26,3.31,42.44,0.48
			c8.08-1.61,15.89-3.95,22.87-8.29c-0.12-0.67-0.1-0.99-0.23-1.23c-0.51-0.92-1.05-1.82-1.6-2.71
			c-13.55-22.22-30.83-40.92-52.35-55.65c-4.58-3.13-9.17-6.3-13.38-9.89c-4.18-3.56-4.35-9.36-0.96-13.31
			c3.4-3.96,8.9-4.44,13.36-1.18c3.51,2.56,6.98,5.2,10.58,7.63c23.07,15.62,42.08,35.16,56.97,58.71c0.68,1.08,1.49,2.09,2.43,3.4
			c0.9-1.6,1.63-2.73,2.2-3.94c1.01-2.17,2.03-4.35,2.84-6.6c6.31-17.52,7.2-35.41,3.72-53.63c-3.35-17.49-12.39-31.11-27.75-40.14
			c-6.69-3.93-13.7-7.51-20.92-10.33c-22.02-8.59-45.19-11.78-68.59-13.5C87,84.05,75.62,83.76,63.87,83.2z"/>
	</g>
</g>
</svg>
