<?xml version="1.0" encoding="utf-8"?>
<!-- Generator: Adobe Illustrator 23.0.4, SVG Export Plug-In . SVG Version: 6.00 Build 0)  -->
<svg version="1.1" id="Capa_1" xmlns="http://www.w3.org/2000/svg" xmlns:xlink="http://www.w3.org/1999/xlink" x="0px" y="0px"
	 viewBox="0 0 512 512" style="enable-background:new 0 0 512 512;" xml:space="preserve">
<style type="text/css">
	.st0{opacity:0.4;}
	.st1{fill:#216CA7;}
	.st2{fill:#E8E8E8;}
	.st3{fill-rule:evenodd;clip-rule:evenodd;fill:#216CA7;}
	.st4{fill-rule:evenodd;clip-rule:evenodd;fill:#3996C8;}
	.st5{fill-rule:evenodd;clip-rule:evenodd;fill:#3F3F3F;}
	.st6{fill:#3F3F3F;}
	.st7{fill:#FFFFFF;}
	.st8{fill:#F0F0F0;}
	.st9{fill:#D80027;}
	.st10{fill:#0052B4;}
	.st11{fill:#FFDA44;}
	.st12{fill:#A0A0A0;}
	.st13{fill:none;stroke:#3F3F3F;stroke-width:0.5;stroke-miterlimit:10;}
	.st14{clip-path:url(#SVGID_8_);}
	.st15{fill:none;stroke:#FA3D39;stroke-width:10;stroke-miterlimit:10;}
	.st16{fill:#FA3D39;}
	.st17{filter:url(#Adobe_OpacityMaskFilter);}
	.st18{opacity:0.6;fill:url(#SVGID_10_);}
	.st19{mask:url(#SVGID_9_);}
	.st20{fill:none;stroke:#FFFFFF;stroke-width:4;stroke-miterlimit:10;}
	.st21{fill-rule:evenodd;clip-rule:evenodd;fill:#ADADAC;}
	.st22{fill-rule:evenodd;clip-rule:evenodd;fill:#426A8F;}
	.st23{fill-rule:evenodd;clip-rule:evenodd;}
	.st24{fill:#E5E5E6;}
	.st25{fill-rule:evenodd;clip-rule:evenodd;fill:#FFFFFF;}
	.st26{fill-rule:evenodd;clip-rule:evenodd;fill:#2D2B2A;}
	.st27{fill:#2D2B2A;}
	.st28{fill:#406D8D;}
	.st29{fill:#406C3C;}
	.st30{fill:#496977;}
	.st31{opacity:0.05;fill:#FFFFFF;}
	.st32{opacity:0.2;fill:#5D5D5D;}
	.st33{fill-rule:evenodd;clip-rule:evenodd;fill:url(#SVGID_15_);}
	.st34{fill-rule:evenodd;clip-rule:evenodd;fill:url(#SVGID_16_);}
	.st35{fill-rule:evenodd;clip-rule:evenodd;fill:url(#SVGID_17_);}
	.st36{fill-rule:evenodd;clip-rule:evenodd;fill:url(#SVGID_18_);}
	.st37{fill-rule:evenodd;clip-rule:evenodd;fill:url(#SVGID_19_);}
	.st38{fill-rule:evenodd;clip-rule:evenodd;fill:url(#SVGID_20_);}
	.st39{fill-rule:evenodd;clip-rule:evenodd;fill:url(#SVGID_21_);}
	.st40{fill-rule:evenodd;clip-rule:evenodd;fill:url(#SVGID_22_);}
	.st41{fill:#222220;}
	.st42{fill-rule:evenodd;clip-rule:evenodd;fill:#406D8D;}
	.st43{fill:#84828A;}
	.st44{fill:#A13628;}
	.st45{fill-rule:evenodd;clip-rule:evenodd;fill:#998041;}
	.st46{fill-rule:evenodd;clip-rule:evenodd;fill:#7A6041;}
	.st47{fill-rule:evenodd;clip-rule:evenodd;fill:#806A3F;}
	.st48{fill-rule:evenodd;clip-rule:evenodd;fill:#807942;}
	.st49{fill-rule:evenodd;clip-rule:evenodd;fill:#8A7F5C;}
	.st50{fill:#C79832;}
	.st51{fill:#D0AE4A;}
	.st52{fill:#D5BC80;}
	.st53{fill:#8A7F5C;}
	.st54{fill:#C0927C;}
	.st55{fill:#53804C;}
	.st56{fill:#BEC092;}
	.st57{fill:#BDA8B6;}
	.st58{fill:#7A6041;}
	.st59{fill:#806A3F;}
	.st60{fill:#604B36;}
	.st61{fill:#ADADAD;}
	.st62{fill:#838382;}
	.st63{fill:none;stroke:#FFFFFF;stroke-miterlimit:10;}
	.st64{fill:#3E3E3D;}
	.st65{fill:none;stroke:#FFFFFF;stroke-width:0.1;stroke-miterlimit:10;}
	.st66{fill:#575756;}
	.st67{fill:#000105;}
	.st68{fill:#588080;}
	.st69{fill-rule:evenodd;clip-rule:evenodd;fill:#8FB73B;}
	.st70{fill:none;stroke:#3F3F3F;stroke-miterlimit:10;}
	.st71{fill-rule:evenodd;clip-rule:evenodd;fill:url(#SVGID_35_);}
	.st72{fill-rule:evenodd;clip-rule:evenodd;fill:url(#SVGID_36_);}
	.st73{fill-rule:evenodd;clip-rule:evenodd;fill:url(#SVGID_37_);}
	.st74{fill-rule:evenodd;clip-rule:evenodd;fill:url(#SVGID_38_);}
	.st75{fill-rule:evenodd;clip-rule:evenodd;fill:url(#SVGID_39_);}
	.st76{fill-rule:evenodd;clip-rule:evenodd;fill:url(#SVGID_40_);}
	.st77{fill-rule:evenodd;clip-rule:evenodd;fill:url(#SVGID_41_);}
	.st78{fill-rule:evenodd;clip-rule:evenodd;fill:url(#SVGID_42_);}
	.st79{fill:#F8F9FA;}
	.st80{filter:url(#Adobe_OpacityMaskFilter_1_);}
	.st81{opacity:0.6;fill:url(#SVGID_52_);}
	.st82{mask:url(#SVGID_51_);}
	.st83{filter:url(#Adobe_OpacityMaskFilter_2_);}
	.st84{opacity:0.6;fill:url(#SVGID_56_);}
	.st85{mask:url(#SVGID_55_);}
	.st86{filter:url(#Adobe_OpacityMaskFilter_3_);}
	.st87{opacity:0.6;fill:url(#SVGID_60_);}
	.st88{mask:url(#SVGID_59_);}
	.st89{filter:url(#Adobe_OpacityMaskFilter_4_);}
	.st90{opacity:0.6;fill:url(#SVGID_64_);}
	.st91{mask:url(#SVGID_63_);}
	.st92{filter:url(#Adobe_OpacityMaskFilter_5_);}
	.st93{opacity:0.6;fill:url(#SVGID_68_);}
	.st94{mask:url(#SVGID_67_);}
	.st95{fill:#717272;}
	.st96{fill:none;stroke:#FFFFFF;stroke-width:3;stroke-miterlimit:10;}
	.st97{fill-rule:evenodd;clip-rule:evenodd;fill:url(#SVGID_69_);}
	.st98{fill-rule:evenodd;clip-rule:evenodd;fill:url(#SVGID_70_);}
	.st99{fill-rule:evenodd;clip-rule:evenodd;fill:url(#SVGID_71_);}
	.st100{fill-rule:evenodd;clip-rule:evenodd;fill:url(#SVGID_72_);}
	.st101{fill-rule:evenodd;clip-rule:evenodd;fill:url(#SVGID_73_);}
	.st102{fill-rule:evenodd;clip-rule:evenodd;fill:url(#SVGID_74_);}
	.st103{fill-rule:evenodd;clip-rule:evenodd;fill:url(#SVGID_75_);}
	.st104{fill-rule:evenodd;clip-rule:evenodd;fill:url(#SVGID_76_);}
	.st105{fill-rule:evenodd;clip-rule:evenodd;fill:url(#SVGID_77_);}
	.st106{fill-rule:evenodd;clip-rule:evenodd;fill:url(#SVGID_78_);}
	.st107{fill-rule:evenodd;clip-rule:evenodd;fill:url(#SVGID_79_);}
	.st108{fill-rule:evenodd;clip-rule:evenodd;fill:url(#SVGID_80_);}
	.st109{fill-rule:evenodd;clip-rule:evenodd;fill:url(#SVGID_81_);}
	.st110{fill-rule:evenodd;clip-rule:evenodd;fill:url(#SVGID_82_);}
	.st111{fill-rule:evenodd;clip-rule:evenodd;fill:url(#SVGID_83_);}
	.st112{fill-rule:evenodd;clip-rule:evenodd;fill:url(#SVGID_84_);}
	.st113{fill-rule:evenodd;clip-rule:evenodd;fill:url(#SVGID_85_);}
	.st114{fill-rule:evenodd;clip-rule:evenodd;fill:url(#SVGID_86_);}
	.st115{fill-rule:evenodd;clip-rule:evenodd;fill:url(#SVGID_87_);}
	.st116{fill-rule:evenodd;clip-rule:evenodd;fill:url(#SVGID_88_);}
	.st117{fill-rule:evenodd;clip-rule:evenodd;fill:url(#SVGID_89_);}
	.st118{fill-rule:evenodd;clip-rule:evenodd;fill:url(#SVGID_90_);}
	.st119{fill-rule:evenodd;clip-rule:evenodd;fill:url(#SVGID_91_);}
	.st120{fill-rule:evenodd;clip-rule:evenodd;fill:url(#SVGID_92_);}
	.st121{fill:#CEFF00;}
	.st122{fill:none;stroke:#CEFF00;stroke-miterlimit:10;}
</style>
<g>
	<g>
		<defs>
			<rect id="SVGID_3_" x="-918.29" y="-17.42" width="756.4" height="840.33"/>
		</defs>
		<clipPath id="SVGID_2_">
			<use xlink:href="#SVGID_3_"  style="overflow:visible;"/>
		</clipPath>
	</g>
</g>
<g>
	<path class="st7" d="M59.16,130.85c0.34-0.37,0.91-0.7,0.98-1.11c5.03-29.71,32.32-47.02,65.96-40.92
		c35.47,6.43,63.89,25.34,86.52,52.33c17.15,20.45,19.49,44.72,10.06,69.68c-1.86,4.92-1.46,7.72,2.69,11.03
		c7.39,5.88,14.28,12.41,21.78,19.02c8.76-7.72,17.3-15.05,25.52-22.72c1.23-1.14,1.63-4.09,1.22-5.93
		c-4.68-20.63,1.09-37.82,16.02-52.59c28.67-28.37,57.06-57.03,85.66-85.47c2.09-2.08,4.74-4.21,7.46-4.8
		c1.87-0.4,5.15,1.28,6.26,3.02c1.11,1.73,0.99,4.97,0.16,7.03c-0.9,2.23-3.18,3.94-4.98,5.75c-27.96,27.99-55.8,56.11-83.98,83.88
		c-13.06,12.88-17.13,27.28-11.16,44.86c1.01,2.98-0.38,8.48-2.69,10.61c-19.65,18.1-39.77,35.68-59.74,53.42
		c-4.78,4.25-9.07,3.8-13.26-1.03c-7.07-8.15-14.42-16.05-21.39-24.29c-2.59-3.06-4.74-3.39-8.53-1.92
		c-29.98,11.58-58.7,5.01-80.9-18.39c-21.05-22.18-37.18-47.1-42.59-77.86c-0.13-0.72-0.7-1.36-1.06-2.04
		C59.16,145.24,59.16,138.05,59.16,130.85z M221.19,263.97c5.34-4.74,10.1-8.96,15.22-13.51c-9.2-8.18-17.83-16.23-26.87-23.77
		c-5.52-4.61-5.99-8.79-2.68-15.28c10.75-21.07,10.17-42.6-4.89-60.79c-21.32-25.75-48.29-43.76-82.39-48.4
		c-29.61-4.03-49.8,16.71-45.8,46.42c3.95,29.33,19.23,52.68,38.98,73.58c20.21,21.38,45.3,25.79,71.37,12.51
		c5.65-2.88,9.45-2.01,13.4,2.62C205.03,246.1,212.85,254.61,221.19,263.97z"/>
	<path class="st7" d="M283.78,273.45c35.86,31.84,71.01,63.05,106.16,94.26c4.03,3.58,8.15,7.08,12.05,10.81
		c15.75,15.02,16.2,38.83,1.09,53.63c-14.85,14.54-38.62,14.13-53.01-1.78c-28.09-31.07-55.7-62.56-83.52-93.88
		c-6.27-7.06-12.56-14.1-19.36-21.74c-8.2,9.19-15.86,17.75-23.49,26.34c-26.28,29.59-52.32,59.39-78.89,88.71
		c-19.92,21.98-54.68,14.55-62.96-13.28c-4.32-14.52-0.96-27.68,10.42-37.91c27.31-24.58,54.9-48.85,82.35-73.28
		c3.83-3.41,7.97-5.63,12.04-1.07c4.16,4.66,1.11,8.44-2.65,11.77c-26.53,23.52-53.21,46.88-79.4,70.79
		c-4.44,4.05-8.21,10.1-9.66,15.89c-2.44,9.76,3.36,19.24,12.16,23.44c9.49,4.53,19.62,2.6,27.24-5.87
		c18.05-20.05,35.88-40.3,53.8-60.48c35.99-40.54,72.05-81.03,107.89-121.72c4.55-5.16,8.61-6.49,15.36-4.17
		c15.52,5.32,29.26,1.45,40.88-10.2c28.49-28.56,57.04-57.07,85.58-85.59c1.63-1.63,3.18-4.16,5.09-4.51
		c2.87-0.53,6.84-0.46,8.8,1.19c1.51,1.27,1.17,5.47,0.64,8.15c-0.35,1.73-2.49,3.15-3.93,4.59c-28.52,28.54-57.12,57-85.56,85.62
		c-14.57,14.67-31.66,20.19-52,15.76c-2.03-0.44-5.24,0.22-6.59,1.63C297.4,257.76,290.92,265.39,283.78,273.45z M256.65,303.98
		c7.24,8.15,14.06,15.82,20.87,23.49c27.1,30.53,54.22,61.04,81.26,91.63c6.26,7.08,13.74,10.82,23.19,8.79
		c9.06-1.95,15.03-7.7,17.26-16.73c2.23-9.04-0.65-16.73-7.54-22.86c-22.43-19.98-44.91-39.91-67.37-59.85
		c-16.49-14.64-32.98-29.26-50.01-44.37C268.23,290.93,262.5,297.39,256.65,303.98z"/>
	<path class="st7" d="M413.04,96.23c-1.88,2.8-2.97,5.16-4.69,6.9c-23.35,23.48-46.8,46.87-70.2,70.31
		c-3.43,3.43-7.24,5.59-11.36,1.67c-4.49-4.27-2.2-8.23,1.47-11.89c23.26-23.21,46.41-46.54,69.86-69.56
		c2.17-2.13,6.16-3.36,9.24-3.23C409.22,90.49,410.95,93.96,413.04,96.23z"/>
	<path class="st7" d="M432.96,116.08c-1.88,2.78-3,5.13-4.73,6.87c-23.35,23.47-46.8,46.86-70.21,70.28
		c-3.44,3.44-7.29,5.43-11.37,1.43c-4.05-3.97-2.32-7.81,1.2-11.33c23.62-23.58,47.13-47.26,70.93-70.65c1.98-1.94,5.95-3,8.72-2.6
		C429.49,110.37,431.01,113.8,432.96,116.08z"/>
</g>
</svg>
